<?xml version="1.0" encoding="UTF-8"?>
<svg id="Layer_1" data-name="Layer 1" xmlns="http://www.w3.org/2000/svg" viewBox="0 0 490.03 546">
  <circle cx="135.53" cy="200.59" r="130.5" style="fill: #4B6996; stroke: black; stroke-miterlimit: 10; stroke-width: 2px;"/>
  <circle cx="329.94" cy="432" r="113" style="fill: #9ED9C6; stroke: black; stroke-miterlimit: 10; stroke-width: 2px;"/>
  <circle cx="395.53" cy="173.59" r="93.5" style="fill: #0FBED8; stroke: black; stroke-miterlimit: 10; stroke-width: 2px;"/>
  <g>
    <path d="M9.26,80.8l3.81-2.85c4.69-3.51,9.23-2.68,12.84,2.15,3.63,4.85,3.25,9.56-1.34,13l-3.9,2.92-11.41-15.22Zm13.87,10.87c3.55-2.66,3.64-6.21,.76-10.06-2.87-3.83-6.21-4.62-9.76-1.96l-1.72,1.29,9.01,12.02,1.72-1.29Z"/>
    <path d="M24.24,70.54c-.51-.78-.3-1.67,.48-2.18,.78-.51,1.68-.34,2.19,.44,.52,.8,.3,1.68-.48,2.18-.78,.51-1.67,.37-2.19-.44Zm2.76,3.53l2.01-1.32,7.73,11.79-2.01,1.32-7.73-11.79Z"/>
    <path d="M37.92,79.37c-1.57-2.71-.06-5.32,4.83-8.92-.91-1.52-2.27-2.71-4.25-1.56-1.41,.81-2.32,2.18-2.91,3.36l-1.62-.94c.69-1.41,1.92-3.22,3.88-4.36,2.96-1.71,5.39-.47,7.13,2.54l4.34,7.51-1.71,.99-1.04-1.34-.08,.04c-.59,1.65-1.47,3.19-3,4.08-2.03,1.18-4.29,.81-5.57-1.4Zm7.6-4.13l-1.92-3.31c-3.84,2.86-4.64,4.56-3.72,6.14,.78,1.36,2.02,1.35,3.2,.66,1.18-.68,1.85-1.78,2.44-3.49Z"/>
    <path d="M51.06,71.2l-3.47-6.96-1.87,.93-.8-1.61,1.91-1.11-1.76-4.18,1.79-.89,2.02,4.05,3.42-1.71,.87,1.74-3.43,1.71,3.5,7.01c.76,1.53,1.72,2.15,3.15,1.44,.47-.23,.9-.54,1.3-1.04l1.21,1.31c-.52,.65-1.26,1.31-2.11,1.74-2.7,1.35-4.46,.09-5.72-2.43Z"/>
    <path d="M57.13,65.2c-1.83-4.36-.04-8.04,3.14-9.37,3.18-1.34,7.09-.05,8.92,4.31,1.81,4.3,0,7.99-3.19,9.33-3.18,1.34-7.06,.04-8.87-4.26Zm9.76-4.1c-1.26-2.99-3.6-4.37-5.84-3.43-2.22,.93-2.87,3.57-1.62,6.56,1.25,2.97,3.57,4.32,5.79,3.39,2.25-.94,2.91-3.55,1.67-6.52Z"/>
    <path d="M70.88,51.76l1.89-.55,.76,1.89,.08-.02c.82-1.63,1.93-3.04,3.54-3.51,2.09-.61,3.49,.04,4.5,1.47,.96-1.91,2.07-3.38,3.71-3.86,2.78-.81,4.66,.64,5.66,4.09l2.49,8.58-2.31,.67-2.4-8.27c-.74-2.53-1.85-3.36-3.55-2.86-1.06,.31-1.95,1.29-2.8,3.05l2.85,9.8-2.31,.67-2.4-8.27c-.74-2.53-1.82-3.37-3.55-2.86-1,.29-1.92,1.28-2.77,3.04l2.85,9.8-2.31,.67-3.94-13.53Z"/>
    <path d="M95.7,57.72l.81-1.58c1.39,.76,2.75,1.03,4.45,.69,1.82-.36,2.52-1.47,2.28-2.67-.28-1.42-1.94-1.72-3.61-1.98-2.22-.33-4.41-.93-4.86-3.21-.44-2.22,.99-4.27,4.01-4.87,1.74-.34,3.34,.02,4.61,.72l-.81,1.58c-1.11-.52-2.18-.72-3.41-.48-1.76,.35-2.34,1.47-2.14,2.49,.25,1.25,1.54,1.53,3.4,1.78,2.31,.34,4.58,.87,5.07,3.38,.44,2.25-.98,4.48-4.25,5.12-2.02,.4-4.02,.02-5.54-.98Z"/>
  </g>
  <g>
    <path d="M324.22,78.26c-3.43-5.07-2.48-10.23,1.7-13.06,2.19-1.48,4.28-1.5,5.86-1.13l-.26,2c-1.35-.28-2.76-.2-4.35,.88-3.17,2.15-3.54,5.94-.89,9.85,2.68,3.96,6.21,5.18,9.57,2.91,1.13-.76,1.98-1.83,2.22-2.83l-2.78-4.11-3.34,2.26-1.12-1.66,5.19-3.51,4.49,6.63c-.32,1.76-1.53,3.7-3.64,5.13-4.16,2.81-9.16,1.79-12.64-3.35Z"/>
    <path d="M338.4,63.82l1.75-.91,1.35,2.17,.08-.04c.06-2.02,.83-3.69,2.22-4.41,.57-.29,.99-.42,1.47-.43l.48,2.07c-.41,.08-.72,.18-1.21,.43-1.06,.55-1.93,1.95-1.69,4.5l4.16,8.04-2.14,1.1-6.47-12.52Z"/>
    <path d="M349.65,65.96c-1.67-4.27,.19-8.02,3.19-9.19,3.35-1.31,6.2,.32,7.68,4.1,.19,.49,.32,.9,.41,1.37l-8.83,3.46c1.25,2.63,3.59,3.76,6.08,2.79,1.27-.5,2.24-1.28,2.92-2.26l1.34,1.12c-.82,1.25-2.01,2.34-3.82,3.05-3.51,1.37-7.26-.09-8.96-4.44Zm8.71-4.72c-1.01-2.59-2.77-3.5-4.77-2.71-1.84,.72-2.89,2.81-2.17,5.43l6.94-2.72Z"/>
    <path d="M363.37,60.79c-1.11-4.45,1.22-7.92,4.35-8.7,3.49-.87,6.1,1.11,7.08,5.05,.13,.51,.2,.94,.23,1.41l-9.2,2.29c.9,2.76,3.08,4.19,5.67,3.55,1.32-.33,2.38-.98,3.18-1.87l1.19,1.29c-.97,1.14-2.29,2.07-4.18,2.54-3.66,.91-7.19-1.02-8.31-5.55Zm9.24-3.56c-.67-2.7-2.3-3.82-4.38-3.3-1.91,.48-3.22,2.42-2.85,5.1l7.23-1.8Z"/>
    <path d="M377.98,50.27l1.96-.21,.42,2h.09c1.19-1.47,2.52-2.66,4.45-2.87,2.97-.31,4.5,1.45,4.87,5.03l.93,8.88-2.39,.25-.9-8.56c-.28-2.62-1.2-3.63-3.04-3.44-1.41,.15-2.35,.98-3.58,2.54l1.07,10.15-2.39,.25-1.48-14.01Z"/>
    <path d="M399.6,59.4c.29-3.12,3.03-4.38,9.1-4.48,.13-1.76-.28-3.52-2.56-3.73-1.62-.15-3.16,.44-4.32,1.05l-.77-1.7c1.38-.75,3.43-1.52,5.68-1.31,3.41,.32,4.67,2.74,4.34,6.2l-.8,8.63-1.96-.18-.08-1.7h-.09c-1.43,.99-3.05,1.75-4.81,1.58-2.34-.22-3.96-1.82-3.73-4.37Zm8.58,1.03l.35-3.81c-4.79,.11-6.42,1.03-6.58,2.85-.14,1.56,.87,2.26,2.22,2.39s2.54-.38,4.01-1.43Z"/>
    <path d="M414.7,62.05l3.48-17.46,2.36,.47-3.51,17.64c-.15,.74,.11,1.06,.48,1.13,.14,.03,.26,.05,.5,.04l-.04,1.83c-.38,.1-.82,.1-1.42-.02-1.76-.35-2.25-1.63-1.85-3.62Z"/>
    <path d="M419.11,68.49c.35-1.14,1.43-1.99,2.91-2.44l.04-.11c-.54-.62-.84-1.5-.52-2.56,.35-1.14,1.4-1.79,2.24-2.04l.03-.11c-.67-.99-1.12-2.56-.63-4.17,.9-2.94,3.8-4.08,6.55-3.23,.75,.23,1.37,.57,1.81,.92l4.69,1.44-.55,1.77-2.74-.84c.45,.81,.59,1.94,.24,3.08-.89,2.88-3.63,4.01-6.38,3.17-.67-.21-1.33-.59-1.85-1.09-.63,.26-1.12,.59-1.35,1.34-.26,.83,.11,1.61,1.91,2.17l2.61,.8c3.13,.96,4.4,2.45,3.72,4.67-.78,2.52-4.08,3.87-8.26,2.59-3.3-1.02-5.17-3.02-4.45-5.35Zm10.36,2.43c.38-1.25-.43-1.95-2.2-2.5l-2.3-.71c-.53-.16-1.15-.41-1.68-.76-1.18,.39-1.85,1.07-2.09,1.85-.44,1.44,.75,2.78,3.19,3.53,2.55,.79,4.65-.03,5.08-1.41Zm1.63-11.42c.6-1.94-.31-3.53-1.89-4.01-1.58-.49-3.21,.29-3.82,2.25-.61,1.97,.32,3.59,1.87,4.07,1.55,.48,3.23-.34,3.84-2.31Z"/>
    <path d="M434.54,66.76c1.29-2.86,4.29-3.16,10.06-1.29,.7-1.62,.87-3.42-1.22-4.36-1.48-.67-3.13-.61-4.43-.4l-.18-1.86c1.55-.26,3.74-.32,5.8,.61,3.12,1.41,3.53,4.1,2.1,7.28l-3.56,7.91-1.8-.81,.48-1.63-.08-.04c-1.68,.48-3.45,.67-5.06-.05-2.14-.96-3.16-3.01-2.11-5.34Zm7.79,3.76l1.57-3.49c-4.56-1.45-6.41-1.1-7.16,.56-.64,1.43,.09,2.42,1.33,2.98,1.24,.56,2.52,.47,4.26-.06Z"/>
    <path d="M449.27,69.88c2.37-3.92,6.48-4.73,9.23-3.06,3.08,1.86,3.52,5.11,1.43,8.58-.27,.45-.52,.8-.83,1.16l-8.12-4.9c-1.32,2.59-.8,5.14,1.48,6.52,1.17,.7,2.38,1,3.57,.93l-.08,1.75c-1.49,.12-3.08-.17-4.75-1.17-3.23-1.95-4.35-5.81-1.94-9.81Zm9.05,4.04c1.44-2.38,1.09-4.32-.75-5.43-1.69-1.02-3.99-.58-5.63,1.58l6.38,3.85Z"/>
  </g>
  <g>
    <path d="M265.96,311.43c-1.95-5.8,.27-10.49,4.87-12.03,2.2-.74,4.26-.26,5.72,.56l-.79,1.85c-1.29-.67-2.69-.9-4.23-.39-3.38,1.13-4.71,4.67-3.2,9.15,1.52,4.54,4.62,6.65,8.03,5.51,1.73-.58,2.79-1.7,3.53-3.35l1.73,.95c-.9,2.17-2.34,3.69-4.65,4.47-4.51,1.51-9.03-.83-11-6.71Z"/>
    <path d="M284.74,321.35l.07-1.95c.37,.03,.72,0,1.06-.07,1.52-.36,2.22-1.81,2.38-3.64l.07-1.09-8.78-12.42,2.42-.58,4.57,6.9c.73,1.08,1.52,2.38,2.28,3.54l.11-.03c.07-1.33,.13-2.83,.21-4.13l.65-8.14,2.28-.55-1.62,16.07c-.31,2.94-1.26,5.34-4,5.99-.65,.15-1.21,.17-1.7,.11Z"/>
    <path d="M295.65,309.13c-.47-3.09,1.88-4.98,7.74-6.56-.3-1.74-1.13-3.35-3.39-3-1.61,.25-2.96,1.19-3.93,2.07l-1.16-1.46c1.16-1.06,2.96-2.3,5.2-2.65,3.38-.52,5.19,1.52,5.72,4.96l1.32,8.57-1.95,.3-.48-1.63h-.09c-1.15,1.33-2.53,2.46-4.28,2.72-2.32,.36-4.29-.81-4.68-3.33Zm8.58-1.08l-.58-3.78c-4.62,1.27-5.97,2.56-5.7,4.37,.24,1.55,1.39,1.99,2.74,1.78,1.35-.21,2.37-.98,3.54-2.36Z"/>
    <path d="M310.28,296.56l1.97-.11,.32,2.01h.09c1.25-1.41,2.64-2.54,4.58-2.65,2.98-.17,4.42,1.66,4.63,5.25l.52,8.92-2.4,.14-.5-8.6c-.15-2.63-1.03-3.69-2.88-3.58-1.42,.08-2.39,.87-3.7,2.36l.59,10.19-2.4,.14-.82-14.07Z"/>
    <path d="M325.74,302.89c.19-4.72,3.37-7.29,6.82-7.15,3.45,.14,6.44,2.96,6.24,7.68-.19,4.66-3.4,7.23-6.85,7.09-3.45-.14-6.41-2.96-6.22-7.62Zm10.57,.43c.13-3.25-1.4-5.48-3.83-5.58-2.4-.1-4.12,2.01-4.25,5.25-.13,3.21,1.4,5.42,3.81,5.52,2.43,.1,4.14-1.98,4.27-5.19Z"/>
    <path d="M344.12,309.65h-.09s-.43,1.39-.43,1.39l-1.89-.27,2.91-20.44,2.38,.34-.79,5.57-.44,2.49c1.45-.91,3.12-1.52,4.67-1.3,3.59,.51,5.14,3.57,4.53,7.88-.68,4.76-3.95,7.14-7.13,6.69-1.29-.18-2.63-1.05-3.71-2.34Zm8.37-4.67c.44-3.07-.33-5.26-2.95-5.63-1.18-.17-2.47,.29-3.97,1.37l-1.04,7.29c1.05,1.23,2.26,1.79,3.18,1.92,2.3,.33,4.28-1.5,4.77-4.94Z"/>
    <path d="M356.73,309.37c.73-3.05,3.62-3.9,9.65-3.14,.39-1.73,.22-3.53-2.01-4.06-1.58-.38-3.19-.02-4.43,.43l-.52-1.8c1.47-.54,3.61-1.01,5.81-.48,3.33,.8,4.23,3.37,3.42,6.76l-2.03,8.43-1.92-.46,.17-1.69-.08-.02c-1.56,.79-3.27,1.3-4.99,.89-2.29-.55-3.67-2.37-3.07-4.85Zm8.35,2.25l.9-3.72c-4.75-.58-6.5,.11-6.93,1.88-.37,1.52,.54,2.37,1.86,2.68,1.33,.32,2.57,0,4.17-.85Z"/>
    <path d="M371.72,309.68c1.51-4.48,5.36-6.03,8.8-4.87,1.76,.59,2.74,1.69,3.38,2.88l-1.61,1.05c-.51-.94-1.22-1.64-2.29-2-2.42-.81-4.87,.65-5.91,3.73-1.03,3.05-.06,5.64,2.38,6.46,1.24,.42,2.52,.24,3.56-.21l.5,1.79c-1.58,.69-3.29,.79-4.89,.25-3.54-1.19-5.41-4.67-3.92-9.09Z"/>
    <path d="M384.41,316.99l2.99-7.17-1.93-.8,.69-1.66,2.09,.72,2.01-4.06,1.85,.77-1.74,4.18,3.53,1.47-.75,1.79-3.53-1.47-3.02,7.23c-.66,1.58-.5,2.71,.97,3.33,.48,.2,1,.32,1.63,.3l-.2,1.77c-.83,.03-1.81-.1-2.7-.47-2.78-1.16-2.98-3.32-1.9-5.92Z"/>
    <path d="M392.93,317.67c2.07-4.09,6.11-5.2,8.98-3.74,3.21,1.62,3.89,4.83,2.06,8.45-.24,.46-.46,.84-.74,1.21l-8.46-4.28c-1.13,2.68-.41,5.18,1.97,6.39,1.22,.61,2.45,.81,3.63,.66l.06,1.75c-1.48,.23-3.09,.06-4.82-.81-3.36-1.7-4.77-5.47-2.67-9.63Zm9.32,3.35c1.26-2.48,.76-4.39-1.16-5.36-1.76-.89-4.02-.28-5.49,2l6.65,3.36Z"/>
    <path d="M410.38,318.92l1.69,1.02-1.15,2.29,.07,.05c1.76-1.01,3.58-1.22,4.92-.42,.55,.33,.87,.63,1.14,1.03l-1.51,1.49c-.29-.31-.53-.52-1-.81-1.02-.61-2.67-.63-4.72,.91l-4.68,7.75-2.06-1.24,7.28-12.07Z"/>
    <path d="M419.33,324.53l1.99,1.35-7.9,11.67-1.99-1.35,7.9-11.67Zm2.19-3.91c.52-.77,1.43-.92,2.2-.4,.77,.52,.96,1.42,.44,2.19-.54,.79-1.43,.92-2.2,.4-.77-.52-.98-1.4-.44-2.19Z"/>
    <path d="M418.65,336.64c1.92-2.48,4.9-2.07,10.08,1.09,1.06-1.42,1.65-3.12-.17-4.53-1.28-1-2.9-1.33-4.21-1.43l.26-1.85c1.57,.11,3.71,.56,5.5,1.94,2.71,2.09,2.47,4.81,.34,7.56l-5.31,6.86-1.56-1.21,.84-1.47-.07-.05c-1.75,.08-3.51-.15-4.91-1.23-1.86-1.44-2.37-3.67-.81-5.69Zm6.69,5.47l2.34-3.03c-4.1-2.47-5.97-2.57-7.09-1.12-.96,1.24-.48,2.38,.59,3.21,1.08,.83,2.34,1.04,4.15,.94Z"/>
  </g>
</svg>