<?xml version="1.0" encoding="UTF-8"?>
<svg id="Layer_1" data-name="Layer 1" xmlns="http://www.w3.org/2000/svg" viewBox="0 0 442.84 169.92">
  <circle cx="224.34" cy="74.22" r="35.14" style="fill: #4b6996; stroke: #000; stroke-miterlimit: 10; stroke-width: .54px;"/>
  <circle cx="135.84" cy="109.36" r="60.03" style="fill: #9ed9c6; stroke: #000; stroke-miterlimit: 10; stroke-width: 1.06px;"/>
  <circle cx="306.22" cy="95.8" r="48.52" style="fill: #0fbed8; stroke: #000; stroke-miterlimit: 10; stroke-width: 1.04px;"/>
  <g>
    <path d="M193.13,4.17h3.94c4.85,0,7.44,2.81,7.44,7.8s-2.59,7.94-7.34,7.94h-4.03V4.17Zm3.79,14.09c3.67,0,5.5-2.3,5.5-6.29s-1.82-6.14-5.5-6.14h-1.78v12.43h1.78Z"/>
    <path d="M207.41,4.56c0-.77,.55-1.3,1.32-1.3s1.32,.53,1.32,1.3-.55,1.3-1.32,1.3-1.32-.5-1.32-1.3Zm.31,3.7h1.99v11.67h-1.99V8.25Z"/>
    <path d="M212.93,16.9c0-2.59,2.16-3.84,7.15-4.39-.02-1.46-.5-2.88-2.4-2.88-1.34,0-2.57,.6-3.48,1.2l-.77-1.34c1.08-.72,2.71-1.51,4.58-1.51,2.83,0,4.06,1.9,4.06,4.78v7.18h-1.63l-.19-1.39h-.07c-1.1,.94-2.38,1.68-3.84,1.68-1.94,0-3.41-1.2-3.41-3.31Zm7.15,.19v-3.17c-3.94,.46-5.21,1.34-5.21,2.86,0,1.3,.89,1.8,2.02,1.8s2.06-.5,3.19-1.49Z"/>
    <path d="M225.74,16.3v-6.43h-1.73v-1.49l1.82-.12,.24-3.74h1.66v3.74h3.17v1.61h-3.17v6.48c0,1.42,.48,2.23,1.8,2.23,.43,0,.86-.07,1.34-.29l.41,1.42c-.62,.29-1.42,.5-2.21,.5-2.5,0-3.34-1.58-3.34-3.91Z"/>
    <path d="M232.34,14.11c0-3.91,2.54-6.14,5.4-6.14s5.42,2.23,5.42,6.14-2.57,6.1-5.42,6.1-5.4-2.23-5.4-6.1Zm8.76,0c0-2.69-1.34-4.49-3.36-4.49s-3.34,1.8-3.34,4.49,1.34,4.44,3.34,4.44,3.36-1.78,3.36-4.44Z"/>
    <path d="M246.22,8.25h1.63l.17,1.68h.07c1.03-1.1,2.23-1.97,3.62-1.97,1.8,0,2.76,.84,3.24,2.21,1.2-1.3,2.42-2.21,3.84-2.21,2.4,0,3.55,1.58,3.55,4.56v7.39h-1.99v-7.13c0-2.18-.7-3.1-2.16-3.1-.91,0-1.85,.58-2.93,1.78v8.45h-1.99v-7.13c0-2.18-.67-3.1-2.16-3.1-.86,0-1.82,.58-2.9,1.78v8.45h-1.99V8.25Z"/>
    <path d="M264.81,18.53l.91-1.15c1.01,.84,2.06,1.27,3.5,1.27,1.54,0,2.28-.79,2.28-1.8,0-1.2-1.3-1.7-2.62-2.18-1.75-.62-3.43-1.46-3.43-3.38s1.49-3.31,4.03-3.31c1.46,0,2.71,.55,3.62,1.32l-.91,1.15c-.82-.6-1.66-.94-2.69-.94-1.49,0-2.14,.82-2.14,1.68,0,1.06,1.01,1.49,2.47,1.99,1.82,.65,3.58,1.44,3.58,3.55,0,1.9-1.51,3.48-4.27,3.48-1.7,0-3.26-.62-4.34-1.68Z"/>
  </g>
  <g>
    <path d="M325.48,25.83c0-5.06,3.05-8.16,7.22-8.16,2.18,0,3.62,.96,4.54,1.94l-1.1,1.25c-.79-.82-1.8-1.42-3.38-1.42-3.17,0-5.18,2.42-5.18,6.34s1.85,6.43,5.21,6.43c1.13,0,2.21-.34,2.83-.91v-4.1h-3.34v-1.66h5.18v6.62c-1.03,1.06-2.76,1.82-4.87,1.82-4.15,0-7.1-3.02-7.1-8.16Z"/>
    <path d="M341.01,22.03h1.63l.17,2.11h.07c.82-1.46,2.02-2.4,3.31-2.4,.53,0,.89,.07,1.25,.24l-.43,1.7c-.34-.1-.6-.14-1.06-.14-.98,0-2.16,.7-2.95,2.67v7.49h-1.99v-11.67Z"/>
    <path d="M348.26,27.87c0-3.79,2.57-6.12,5.23-6.12,2.98,0,4.68,2.11,4.68,5.47,0,.43-.02,.79-.1,1.18h-7.85c.17,2.4,1.63,3.98,3.84,3.98,1.13,0,2.11-.31,2.93-.86l.7,1.27c-1.01,.72-2.26,1.2-3.87,1.2-3.12,0-5.57-2.26-5.57-6.12Zm8.14-1.01c0-2.3-1.08-3.53-2.86-3.53-1.63,0-3.07,1.3-3.31,3.53h6.17Z"/>
    <path d="M360.16,27.87c0-3.79,2.57-6.12,5.23-6.12,2.98,0,4.68,2.11,4.68,5.47,0,.43-.02,.79-.1,1.18h-7.85c.17,2.4,1.63,3.98,3.84,3.98,1.13,0,2.11-.31,2.93-.86l.7,1.27c-1.01,.72-2.26,1.2-3.87,1.2-3.12,0-5.57-2.26-5.57-6.12Zm8.14-1.01c0-2.3-1.08-3.53-2.86-3.53-1.63,0-3.07,1.3-3.31,3.53h6.17Z"/>
    <path d="M372.93,22.03h1.63l.17,1.68h.07c1.1-1.1,2.3-1.97,3.91-1.97,2.47,0,3.58,1.58,3.58,4.56v7.39h-1.99v-7.13c0-2.18-.67-3.1-2.21-3.1-1.18,0-2.02,.6-3.17,1.78v8.45h-1.99v-11.67Z"/>
    <path d="M390.13,30.67c0-2.59,2.16-3.84,7.15-4.39-.02-1.46-.5-2.88-2.4-2.88-1.34,0-2.57,.6-3.48,1.2l-.77-1.34c1.08-.72,2.71-1.51,4.58-1.51,2.83,0,4.06,1.9,4.06,4.78v7.18h-1.63l-.19-1.39h-.07c-1.1,.94-2.38,1.68-3.84,1.68-1.94,0-3.41-1.2-3.41-3.31Zm7.15,.19v-3.17c-3.94,.46-5.21,1.34-5.21,2.86,0,1.3,.89,1.8,2.02,1.8s2.06-.5,3.19-1.49Z"/>
    <path d="M402.95,31.35v-14.74h1.99v14.88c0,.62,.26,.84,.58,.84,.12,0,.22,0,.41-.05l.26,1.49c-.29,.14-.65,.22-1.15,.22-1.49,0-2.09-.96-2.09-2.64Z"/>
    <path d="M408.18,35.93c0-.98,.65-1.92,1.7-2.64v-.1c-.58-.36-1.03-.98-1.03-1.9,0-.98,.67-1.75,1.27-2.16v-.1c-.77-.62-1.51-1.75-1.51-3.14,0-2.54,2.02-4.15,4.39-4.15,.65,0,1.22,.12,1.66,.29h4.06v1.54h-2.38c.55,.53,.94,1.39,.94,2.38,0,2.5-1.9,4.06-4.27,4.06-.58,0-1.2-.14-1.73-.41-.43,.36-.74,.74-.74,1.39,0,.72,.48,1.25,2.04,1.25h2.26c2.71,0,4.08,.86,4.08,2.78,0,2.18-2.28,4.06-5.9,4.06-2.86,0-4.82-1.13-4.82-3.14Zm8.79-.6c0-1.08-.82-1.44-2.35-1.44h-1.99c-.46,0-1.01-.05-1.51-.19-.84,.6-1.2,1.3-1.2,1.97,0,1.25,1.27,2.02,3.38,2.02s3.67-1.15,3.67-2.35Zm-1.49-9.43c0-1.68-1.1-2.71-2.47-2.71s-2.47,1.01-2.47,2.71,1.13,2.76,2.47,2.76,2.47-1.06,2.47-2.76Z"/>
    <path d="M420.09,30.67c0-2.59,2.16-3.84,7.15-4.39-.02-1.46-.5-2.88-2.4-2.88-1.34,0-2.57,.6-3.48,1.2l-.77-1.34c1.08-.72,2.71-1.51,4.58-1.51,2.83,0,4.06,1.9,4.06,4.78v7.18h-1.63l-.19-1.39h-.07c-1.1,.94-2.38,1.68-3.84,1.68-1.94,0-3.41-1.2-3.41-3.31Zm7.15,.19v-3.17c-3.94,.46-5.21,1.34-5.21,2.86,0,1.3,.89,1.8,2.02,1.8s2.06-.5,3.19-1.49Z"/>
    <path d="M432.04,27.87c0-3.79,2.57-6.12,5.23-6.12,2.98,0,4.68,2.11,4.68,5.47,0,.43-.02,.79-.1,1.18h-7.85c.17,2.4,1.63,3.98,3.84,3.98,1.13,0,2.11-.31,2.93-.86l.7,1.27c-1.01,.72-2.26,1.2-3.86,1.2-3.12,0-5.57-2.26-5.57-6.12Zm8.14-1.01c0-2.3-1.08-3.53-2.86-3.53-1.63,0-3.07,1.3-3.31,3.53h6.17Z"/>
  </g>
  <g>
    <path d="M1.25,29.64c0-5.06,2.98-8.16,6.98-8.16,1.92,0,3.41,.91,4.34,1.94l-1.1,1.25c-.84-.86-1.87-1.42-3.22-1.42-2.95,0-4.92,2.42-4.92,6.34s1.87,6.43,4.85,6.43c1.51,0,2.64-.6,3.65-1.7l1.1,1.2c-1.27,1.46-2.81,2.28-4.82,2.28-3.94,0-6.86-3.02-6.86-8.16Z"/>
    <path d="M14.16,42.29l.43-1.56c.29,.1,.58,.14,.86,.14,1.3,0,2.14-1.03,2.62-2.47l.26-.86-4.68-11.69h2.06l2.35,6.43c.38,1.01,.77,2.21,1.15,3.29h.1c.31-1.06,.65-2.26,.96-3.29l2.09-6.43h1.94l-4.39,12.62c-.82,2.3-2.04,4.06-4.37,4.06-.55,0-1.01-.1-1.39-.24Z"/>
    <path d="M25.37,34.49c0-2.59,2.16-3.84,7.15-4.39-.02-1.46-.5-2.88-2.4-2.88-1.34,0-2.57,.6-3.48,1.2l-.77-1.34c1.08-.72,2.71-1.51,4.58-1.51,2.83,0,4.06,1.9,4.06,4.78v7.18h-1.63l-.19-1.39h-.07c-1.1,.94-2.38,1.68-3.84,1.68-1.94,0-3.41-1.2-3.41-3.31Zm7.15,.19v-3.17c-3.94,.46-5.21,1.34-5.21,2.86,0,1.3,.89,1.8,2.02,1.8s2.06-.5,3.19-1.49Z"/>
    <path d="M38.18,25.85h1.63l.17,1.68h.07c1.1-1.1,2.3-1.97,3.91-1.97,2.47,0,3.58,1.58,3.58,4.56v7.39h-1.99v-7.13c0-2.18-.67-3.1-2.21-3.1-1.18,0-2.02,.6-3.17,1.78v8.45h-1.99v-11.67Z"/>
    <path d="M50.45,31.7c0-3.91,2.54-6.14,5.4-6.14s5.42,2.23,5.42,6.14-2.57,6.1-5.42,6.1-5.4-2.23-5.4-6.1Zm8.76,0c0-2.69-1.34-4.49-3.36-4.49s-3.34,1.8-3.34,4.49,1.34,4.44,3.34,4.44,3.36-1.78,3.36-4.44Z"/>
    <path d="M66.17,36.31h-.07l-.19,1.2h-1.58V20.42h1.99v4.66l-.07,2.09c1.08-.91,2.38-1.61,3.67-1.61,3,0,4.63,2.33,4.63,5.93,0,3.98-2.4,6.31-5.06,6.31-1.08,0-2.28-.55-3.31-1.49Zm6.31-4.8c0-2.57-.89-4.27-3.07-4.27-.98,0-1.99,.53-3.1,1.58v6.1c1.01,.89,2.06,1.2,2.83,1.2,1.92,0,3.34-1.73,3.34-4.61Z"/>
    <path d="M76.56,34.49c0-2.59,2.16-3.84,7.15-4.39-.02-1.46-.5-2.88-2.4-2.88-1.34,0-2.57,.6-3.48,1.2l-.77-1.34c1.08-.72,2.71-1.51,4.58-1.51,2.83,0,4.06,1.9,4.06,4.78v7.18h-1.63l-.19-1.39h-.07c-1.1,.94-2.38,1.68-3.84,1.68-1.94,0-3.41-1.2-3.41-3.31Zm7.15,.19v-3.17c-3.94,.46-5.21,1.34-5.21,2.86,0,1.3,.89,1.8,2.02,1.8s2.06-.5,3.19-1.49Z"/>
    <path d="M88.51,31.7c0-3.91,2.62-6.14,5.62-6.14,1.54,0,2.59,.6,3.41,1.37l-.98,1.25c-.65-.6-1.39-.96-2.33-.96-2.11,0-3.65,1.8-3.65,4.49s1.44,4.44,3.58,4.44c1.08,0,2.04-.48,2.74-1.1l.86,1.27c-1.06,.96-2.38,1.49-3.77,1.49-3.1,0-5.47-2.23-5.47-6.1Z"/>
    <path d="M100.42,33.89v-6.43h-1.73v-1.49l1.82-.12,.24-3.74h1.66v3.74h3.17v1.61h-3.17v6.48c0,1.42,.48,2.23,1.8,2.23,.43,0,.86-.07,1.34-.29l.41,1.42c-.62,.29-1.42,.5-2.21,.5-2.5,0-3.34-1.58-3.34-3.91Z"/>
    <path d="M107.02,31.68c0-3.79,2.57-6.12,5.23-6.12,2.98,0,4.68,2.11,4.68,5.47,0,.43-.02,.79-.1,1.18h-7.85c.17,2.4,1.63,3.98,3.84,3.98,1.13,0,2.11-.31,2.93-.86l.7,1.27c-1.01,.72-2.26,1.2-3.86,1.2-3.12,0-5.57-2.26-5.57-6.12Zm8.14-1.01c0-2.3-1.08-3.53-2.86-3.53-1.63,0-3.07,1.3-3.31,3.53h6.17Z"/>
    <path d="M119.78,25.85h1.63l.17,2.11h.07c.82-1.46,2.02-2.4,3.31-2.4,.53,0,.89,.07,1.25,.24l-.43,1.7c-.34-.1-.6-.14-1.06-.14-.98,0-2.16,.7-2.95,2.67v7.49h-1.99v-11.67Z"/>
    <path d="M127.82,22.15c0-.77,.55-1.3,1.32-1.3s1.32,.53,1.32,1.3-.55,1.3-1.32,1.3-1.32-.5-1.32-1.3Zm.31,3.7h1.99v11.67h-1.99v-11.67Z"/>
    <path d="M133.34,34.49c0-2.59,2.16-3.84,7.15-4.39-.02-1.46-.5-2.88-2.4-2.88-1.34,0-2.57,.6-3.48,1.2l-.77-1.34c1.08-.72,2.71-1.51,4.58-1.51,2.83,0,4.06,1.9,4.06,4.78v7.18h-1.63l-.19-1.39h-.07c-1.1,.94-2.38,1.68-3.84,1.68-1.94,0-3.41-1.2-3.41-3.31Zm7.15,.19v-3.17c-3.94,.46-5.21,1.34-5.21,2.86,0,1.3,.89,1.8,2.02,1.8s2.06-.5,3.19-1.49Z"/>
  </g>
</svg>