<?xml version="1.0" encoding="UTF-8"?>
<svg id="Layer_1" data-name="Layer 1" xmlns="http://www.w3.org/2000/svg" viewBox="0 0 1347.35 259.62">
  <path d="M26.63,233.16c38.34-37.34,77.06-75.13,122.2-104.29,21.97-14.19,45.49-26.72,70.46-34.73,21.76-6.97,51.23-10.98,67.2,9.72,7.2,9.33,5.79,19.6,4.57,30.66-1.55,13.99-.63,28.64,9.7,39.34,16.76,17.35,44.38,12.86,64.51,4.96,46.5-18.25,86.68-47.84,128.09-75.13,20.43-13.46,41.32-26.39,63.54-36.71,10.36-4.81,21.06-8.86,32.02-12.09,5.76-1.7,11.59-3.17,17.48-4.36,3.43-.69,6.13-1.93,8.06,.64,2.47,3.29,2.67,9.82,4.03,13.75,1.79,5.16,4.06,10.3,6.96,14.95,5.95,9.53,13.92,17.26,23.07,23.7,18.19,12.81,40.62,18.56,62.41,21.22,25.55,3.12,51.68,.8,77.09-2.52,29.48-3.85,58.56-9.82,87.54-16.37s58.08-13.62,87.39-19.16c27.25-5.15,55.49-10.04,83.33-8.44,11.88,.68,24.17,3,34.84,8.46,10.56,5.4,18.98,13.33,26.68,22.24,16.28,18.83,29.06,40.18,48.98,55.64,39.7,30.79,92.02,35.82,140.61,34.8,12.17-.25,24.32-.9,36.46-1.66,7.28-.45,13.5-5.88,13.5-13.5,0-6.96-6.19-13.95-13.5-13.5-46.49,2.88-98.79,6.2-141.67-15.52-21.55-10.92-36.18-27.89-50.58-46.81-16.24-21.34-33.13-40.62-58.94-50.24-25.68-9.57-54.35-7.95-81.05-4.68-30.38,3.73-60.36,9.77-90.2,16.49-57.43,12.94-115.13,28.36-174.37,29.17-19.98,.27-40.63-2.28-58.95-10.02s-30.59-19.6-35.52-38.13c-3.64-13.71-10.46-26.09-25.92-27.98-12.58-1.54-26.8,3.22-38.73,6.96-23.3,7.32-45.44,18.15-66.47,30.47-43,25.19-82.1,56.67-126.35,79.77-10.47,5.47-21.22,10.64-32.37,14.56-8.55,3-18.63,5.42-26.76,3.31-3.51-.91-5.39-1.89-6.94-4.51-2.73-4.63-1.81-10.68-1.33-15.79,1.33-14.2,2.53-26.97-3.68-40.33-11.39-24.49-39.36-36.67-65.22-36.09-29.1,.64-57.79,13.28-83.24,26.47-48.29,25.02-89.98,61.18-129.21,98.4-9.68,9.19-19.25,18.49-28.81,27.8-12.47,12.15,6.63,31.23,19.09,19.09h0Z" style="fill: #043d56;"/>
  <path d="M425.44,164.23c-17.82,0-32.31-14.5-32.31-32.31s14.5-32.31,32.31-32.31,32.32,14.5,32.32,32.31-14.5,32.31-32.32,32.31Zm0-49.6c-9.53,0-17.28,7.75-17.28,17.28s7.75,17.28,17.28,17.28,17.29-7.75,17.29-17.28-7.75-17.28-17.29-17.28Z" style="fill: dodgerblue; stroke: #fff; stroke-miterlimit: 10; stroke-width: 2px;"/>
  <path d="M741.69,146.53c-17.82,0-32.32-14.5-32.32-32.31s14.5-32.31,32.32-32.31,32.32,14.5,32.32,32.31-14.5,32.31-32.32,32.31Zm0-49.6c-9.53,0-17.29,7.75-17.29,17.28s7.75,17.28,17.29,17.28,17.29-7.75,17.29-17.28-7.75-17.28-17.29-17.28Z" style="fill: dodgerblue; stroke: #fff; stroke-miterlimit: 10; stroke-width: 2px;"/>
  <path d="M970.75,102.54c-17.82,0-32.32-14.5-32.32-32.31s14.5-32.31,32.32-32.31,32.32,14.5,32.32,32.31-14.5,32.31-32.32,32.31Zm0-49.6c-9.53,0-17.29,7.75-17.29,17.28s7.75,17.28,17.29,17.28,17.29-7.75,17.29-17.28-7.75-17.28-17.29-17.28Z" style="fill: dodgerblue; stroke: #fff; stroke-miterlimit: 10; stroke-width: 2px;"/>
  <g>
    <path d="M673.72,175.19c0,1.77-.56,3.31-1.68,4.64s-2.51,1.99-4.17,1.99c-3.33,0-5.78-1.59-7.34-4.76-1.7-1.11-2.55-2.05-2.55-2.82,0-.38,.24-.7,.71-.95,.93-.5,1.78-.75,2.55-.75,1.68,0,2.8,1,3.37,2.99,.27,.54,.56,1.09,.85,1.63,.29,.54,.69,.82,1.19,.82,1.34,0,2.01-.95,2.01-2.86,0-1.7-.31-2.84-.92-3.43-.27-.25-1.36-.77-3.26-1.56-1.52-.63-2.74-1.72-3.67-3.26-.84-1.41-1.27-2.87-1.29-4.39-.02-2.45,.59-4.62,1.84-6.53,1.31-2.04,2.95-3.06,4.9-3.06,2.27,0,3.92,.91,4.96,2.72,.68,1.13,1.06,2.54,1.16,4.22,.25,.86,.37,1.64,.37,2.35,0,.45-.06,.83-.17,1.12-.34,.84-1.01,1.26-2.01,1.26-.75,0-1.43-.27-2.04-.82-.68-.59-1.1-1.42-1.26-2.48-.07-.36,0-.73,.22-1.09,.22-.36,.32-.57,.32-.61s-.02-.09-.07-.14c.02-.11,.03-.23,.03-.34,0-.68-.4-1-1.19-.95-.77,.05-1.37,.56-1.8,1.53-.39,.84-.56,1.8-.51,2.89,.07,1.93,1.34,3.47,3.81,4.62,1.95,.91,3.3,1.8,4.05,2.69,1.07,1.27,1.6,3.05,1.6,5.34Z"/>
    <path d="M685.04,165.4c-.18,0-.46-.07-.85-.22-.39-.15-.68-.22-.88-.22-.16,0-.32,.03-.48,.1l-1.26,.65v11.63c0,.43,.23,.99,.7,1.67s.65,1.22,.56,1.63c-.11,.5-.45,.9-1,1.19-.56,.29-1.15,.44-1.79,.44-1.2,0-2.03-.53-2.48-1.6-.14-.32-.22-1.33-.24-3.03-.02-1.13-.01-2.9,.03-5.3,.05-2.72,.07-4.44,.07-5.17-.14,.05-.36,.2-.68,.46-.32,.26-.63,.39-.95,.39-.25,0-.57-.07-.95-.2-1.59-.54-2.38-1.1-2.38-1.67,0-.14,.03-.28,.1-.44,.16-.36,.45-.57,.88-.61,.66-.09,1.05-.17,1.19-.24,.52-.2,1.47-.69,2.86-1.46v-2.96c0-.23-.06-.53-.19-.9-.12-.37-.19-.65-.19-.83,0-.2,.06-.4,.17-.58,.59-.91,1.38-1.36,2.38-1.36,1.16,0,1.97,.45,2.45,1.36,.18,.36,.27,.66,.27,.88,0,.27-.14,.56-.41,.85-.27,.29-.41,.57-.41,.82v1.67c.41-.18,.86-.49,1.36-.92,.39-.32,.71-.48,.99-.48,.11,0,.24,.02,.37,.07,1.43,.39,2.14,1.25,2.14,2.58,0,.43-.13,.84-.39,1.22-.26,.39-.6,.58-1,.58Z"/>
    <path d="M702.52,179.41c-.34,1.11-1.18,1.67-2.52,1.67-.45,0-.82-.08-1.09-.24-.36-.25-.61-.75-.75-1.5-.27-1.29-.54-2.3-.82-3.03-.07,1.25-.75,2.51-2.04,3.79s-2.6,1.92-3.91,1.92c-1.65,0-2.8-1.1-3.43-3.3-.23-.82-.34-1.59-.34-2.31,0-2.11,1.08-3.91,3.23-5.41,1.77-1.04,3.55-2.07,5.34-3.09,.09-.39,.14-.76,.14-1.12,0-.7-.19-1.12-.58-1.24-.39-.12-.71-.19-.99-.19-.48,0-.87,.15-1.17,.46-.31,.31-.6,.6-.87,.87-.27,.18-.62,.6-1.05,1.26-.34,.52-.71,.81-1.12,.85-.59,.07-1.12-.14-1.6-.61-.48-.48-.71-1.03-.71-1.67,0-.36,.09-.69,.27-.99,.52-.86,1.3-1.61,2.35-2.24,1.59-.95,3.57-1.43,5.95-1.43,1.52,0,2.56,.73,3.13,2.18,.36,.97,.63,2.8,.82,5.47,.2,3.24,.45,5.61,.75,7.11,.05,.29,.24,.67,.58,1.12,.34,.45,.51,.85,.51,1.19,0,.16-.02,.32-.07,.48Zm-5.92-8.36c-.68,.36-1.35,.74-2.02,1.12-.67,.39-1.29,.9-1.85,1.53-.82,.93-1.22,1.72-1.22,2.38,0,.54,.2,1.11,.61,1.7,.23,.32,.48,.48,.75,.48,.59,0,1.23-.66,1.92-1.97,.69-1.31,1.3-3.06,1.82-5.24Z"/>
    <path d="M718.26,163.5c-.09,.48-.52,.8-1.29,.99-.91,.23-1.49,.49-1.73,.78l-5.54,6.39v5.17c0,.5,.14,1,.42,1.51,.28,.51,.43,.9,.43,1.17s-.08,.58-.24,.92c-.39,.86-1.17,1.29-2.35,1.29-.82,0-1.46-.26-1.94-.78-.32-.34-.48-.77-.48-1.29,0-.18,.02-.48,.07-.88,.05-.41,.07-.74,.07-.99v-12.72c0-.2-.09-.45-.27-.75-.18-.29-.27-.53-.27-.71,0-.14,.04-.29,.14-.48,.29-.54,1.21-.82,2.75-.82,1.2,0,1.88,.28,2.04,.85,.07,.23,.1,.42,.1,.58,0,.25-.09,.44-.27,.58-.18,.14-.27,.27-.27,.41l.07,1.22,2.92-3.09c.34-.39,.7-.77,1.07-1.16,.37-.39,.81-.6,1.31-.65,.77-.07,1.51,.1,2.23,.51,.71,.41,1.07,.94,1.07,1.6,0,.11-.01,.23-.03,.34Z"/>
    <path d="M736.21,162.48c.16,.29,.24,.6,.24,.92,0,.45-.19,1.02-.58,1.7-.54,.91-.86,1.48-.95,1.73-1,2.86-2.28,6.46-3.84,10.81-.29,1.5-.67,2.56-1.12,3.2-.57,.86-1.41,1.26-2.52,1.19-1.07-.07-1.78-.28-2.14-.65-.27-.27-.41-.69-.41-1.26v-.71c0-.41-.03-.75-.1-1.02l-3.47-12.44c-.07-.27-.36-.71-.88-1.33-.43-.48-.6-.92-.51-1.33,.23-1,1.03-1.5,2.41-1.5,.29,0,.57,.02,.82,.07,.88,.18,1.76,1.73,2.62,4.66,.7,2.74,1.42,5.47,2.14,8.19l3.54-10.88c.18-.54,.33-.92,.44-1.12,.2-.36,.49-.65,.87-.85,.37-.2,.83-.31,1.38-.31,1.04,0,1.73,.31,2.07,.92Z"/>
    <path d="M749.64,177.27c-.18,.86-.79,1.78-1.84,2.75-.16,.25-.78,.58-1.87,.99-1.25,.48-2.32,.68-3.23,.61-1.7-.11-3.04-1.09-4.01-2.92-.88-1.7-1.33-3.79-1.33-6.26,0-2.67,.5-5.02,1.5-7.04,1.11-2.22,2.59-3.47,4.45-3.74,.36-.05,.71-.07,1.05-.07,2.7,0,4.18,1.65,4.45,4.96,.14,1.52-.46,3.17-1.8,4.96-1.45,1.97-3.31,3.35-5.58,4.15,.25,.91,.44,1.5,.58,1.77,.32,.57,.75,.85,1.29,.85s1.08-.2,1.67-.61c.5-.34,.84-.67,1.02-.99,.09-.05,.18-.3,.27-.77,.09-.46,.33-.8,.71-1,.14-.07,.29-.1,.48-.1,.54,0,1.07,.27,1.58,.8,.51,.53,.71,1.08,.59,1.65Zm-5.34-11.97c-.91,0-1.64,.65-2.21,1.94-.75,1.72-1.05,3.42-.92,5.1,1.07-.34,2.05-1.13,2.96-2.38,.91-1.25,1.36-2.36,1.36-3.33,0-.88-.4-1.33-1.19-1.33Z"/>
    <path d="M764.91,180.63c-.27,.61-1.11,.92-2.52,.92-.88,0-1.47-.18-1.77-.54-.11-.11-.17-.27-.17-.48,0-.16,.06-.41,.17-.75,.11-.34,.18-.6,.2-.78-1.04,1.47-2.27,2.21-3.67,2.21-1.88,0-3.25-1.06-4.11-3.2-.66-1.63-.99-3.75-.99-6.36,0-2.4,.51-4.59,1.53-6.56,1.13-2.15,2.53-3.23,4.18-3.23,.93,0,1.88,.75,2.86,2.24v-4.39c0-.36-.15-.83-.44-1.39-.29-.57-.44-1-.44-1.29,0-.23,.06-.45,.17-.68,.48-1.02,1.41-1.53,2.79-1.53,1.13,0,1.84,.41,2.11,1.22,.09,.27,.14,.53,.14,.78s-.07,.58-.22,1c-.15,.42-.22,.78-.22,1.07v19.38c0,.25,.09,.55,.27,.9,.18,.35,.27,.64,.27,.87,0,.18-.04,.37-.14,.58Zm-4.69-8.98c0-1.04-.22-2.27-.65-3.67-.48-1.5-.94-2.24-1.39-2.24-.52,0-.94,.69-1.26,2.07-.25,1.13-.37,2.41-.37,3.84,0,.25-.01,.66-.03,1.22v1.26c0,2.56,.55,3.84,1.67,3.84,.52,0,1-.74,1.43-2.21,.41-1.36,.61-2.73,.61-4.11Z"/>
    <path d="M794.76,178.59c.02,.14,.03,.26,.03,.37,0,.68-.4,1.25-1.19,1.72-.79,.46-1.62,.7-2.48,.7-.52,0-.94-.1-1.26-.31-.23-.14-.42-.4-.59-.8-.17-.4-.36-.66-.56-.8l-7.51-5.03,.31,3.13c.02,.16,.2,.49,.53,.99,.33,.5,.49,.92,.49,1.26,0,.5-.32,.96-.95,1.39-.39,.27-.87,.41-1.46,.41-.84,0-1.62-.23-2.35-.68-.79-.45-1.27-1.03-1.43-1.73-.02-.14-.03-.25-.03-.34,0-.32,.15-.59,.46-.83,.31-.24,.46-.46,.46-.66l-1.09-19.38c-.02-.29-.15-.69-.37-1.17-.23-.49-.34-.84-.34-1.07,0-.59,.39-1.07,1.16-1.43,.63-.32,1.28-.48,1.94-.48,.43,0,.8,.06,1.12,.19,.32,.12,.53,.32,.65,.58,.11,.26,.25,.39,.41,.39,.02,.02,.71-.23,2.07-.75,1.59-.59,2.98-.88,4.18-.88,1.75,0,3.15,.61,4.22,1.84,.29,.34,.44,.82,.44,1.43,0,1.65-.95,3.99-2.86,7-1.81,2.83-3.68,5.1-5.61,6.8l8.77,6.12s.59,.29,1.7,.82c.63,.29,1.02,.7,1.16,1.22Zm-9.11-21.11c-.5,0-1.29,.48-2.38,1.43-.23,.18-1.07,.96-2.52,2.35l-.07,6.09c1.41-1.54,2.67-3.26,3.81-5.15s1.7-3.25,1.7-4.06c0-.43-.18-.65-.54-.65Z"/>
    <path d="M806.49,163.29c1.52,1.54,2.28,4.14,2.28,7.79,0,2.83-.53,5.25-1.6,7.24-1.2,2.24-2.86,3.37-4.96,3.37s-3.69-1.01-4.83-3.03c-1-1.77-1.5-4.01-1.5-6.73,0-2.4,.38-4.56,1.16-6.46,.82-2.04,1.86-3.24,3.13-3.6,.66-.18,1.34-.27,2.04-.27,1.75,0,3.17,.57,4.28,1.7Zm-3.88,1.63c-.75-.07-1.39,.63-1.94,2.11-.48,1.34-.71,2.74-.71,4.22,0,2.13,.09,3.64,.27,4.52,.32,1.59,.97,2.46,1.97,2.62,.63,.09,1.22-.78,1.77-2.62,.52-1.77,.78-3.66,.78-5.68,0-3.31-.71-5.03-2.14-5.17Z"/>
    <path d="M823.42,175.19c-.02,.5-.24,1.01-.65,1.53-.63,.75-1.04,1.31-1.22,1.7-1.43,2.18-2.9,3.26-4.42,3.26-1.79,0-3.18-.91-4.18-2.72-.88-1.65-1.33-3.74-1.33-6.26,0-2.88,.54-5.38,1.63-7.51,1.2-2.36,2.75-3.54,4.66-3.54,1.5,0,2.71,.83,3.64,2.48,.77,1.41,1.16,2.94,1.16,4.59,0,.45-.03,.85-.1,1.19-.16,.77-.81,1.16-1.94,1.16-.88,0-1.56-.25-2.04-.75-.23-.25-.34-.83-.34-1.73,0-.23,.01-.55,.03-.99v-.99c0-1.02-.18-1.53-.54-1.53-.39,0-.79,1.12-1.22,3.35-.43,2.23-.65,4.32-.65,6.27,0,2.27,.34,3.4,1.02,3.4,.88,0,1.54-.71,1.97-2.14,.18-.2,.28-.61,.31-1.22,0-.54,.14-.9,.41-1.07,.27-.17,.67-.25,1.19-.25,.68,0,1.27,.15,1.77,.44,.59,.34,.87,.78,.85,1.33Z"/>
    <path d="M842.01,178.18c.02,.16,.03,.32,.03,.48,0,1.36-.76,2.28-2.28,2.75-.29,.09-.56,.14-.78,.14-.41,0-.78-.19-1.12-.58-.52-.57-.84-.88-.95-.95l-6.12-4.28v2.86c0,.2,.06,.46,.19,.77,.12,.31,.19,.54,.19,.7,0,.25-.12,.51-.37,.78-.57,.59-1.38,.88-2.45,.88s-1.68-.34-1.97-1.02c-.14-.32-.18-.65-.14-.99,.09-.59,.14-.99,.14-1.19v-22.37c-.02-.41,.02-1.02,.14-1.84,.2-.5,.83-.75,1.87-.75,1.36,0,2.23,.25,2.62,.75,.2,.27,.31,.57,.31,.88,0,.25-.08,.64-.25,1.16-.17,.52-.25,.93-.25,1.22-.05,1.31-.05,5.02,0,11.12,1.27-1.22,2.9-2.82,4.9-4.79,.27-.27,.62-.76,1.05-1.46,.25-.41,.62-.68,1.12-.82,.14-.05,.29-.07,.48-.07,.66,0,1.33,.25,2.02,.75s1.04,1.03,1.04,1.6c0,.32-.23,.7-.68,1.16-.45,.45-.91,.88-1.36,1.29l-5.64,5.85,6.05,4.35s.5,.23,1.36,.54c.5,.2,.79,.57,.88,1.09Z"/>
    <path d="M674.74,208.17c0,3.88-.56,7.16-1.67,9.86-1.41,3.31-3.43,4.91-6.09,4.79-2.7-.11-4.67-1.78-5.92-5-.95-2.49-1.43-5.71-1.43-9.66,0-3.08,.57-5.99,1.7-8.74,1.47-3.58,3.56-5.37,6.26-5.37,2.4,0,4.25,1.6,5.54,4.79,1.07,2.61,1.6,5.71,1.6,9.32Zm-4.9,0c-.02-2.92-.14-4.96-.34-6.12-.39-2.18-1.16-3.26-2.31-3.26-.66,0-1.27,1.09-1.84,3.26-.5,1.97-.77,4.01-.82,6.12-.07,2.29,.12,4.5,.58,6.63,.5,2.38,1.12,3.57,1.87,3.57,.66,0,1.3-1.19,1.94-3.57,.63-2.31,.94-4.52,.92-6.63Z"/>
    <path d="M695.48,197.16c0,.57-.22,1.05-.65,1.46-.43,.41-.96,.67-1.6,.78-.32,.07-.73-.03-1.22-.29-.5-.26-.91-.37-1.22-.32l-5.51,.75c.05,2.22,.05,3.85,0,4.9,1.29-.91,2.79-1.36,4.49-1.36,1.11,0,2.07,.35,2.87,1.05s1.21,1.64,1.21,2.82c0,1.75-.61,4.02-1.84,6.83-1.07,2.45-2.31,4.69-3.72,6.72-1.42,2.03-2.4,3.01-2.94,2.94-1.07-.13-2.62-1.13-4.67-2.99-2.05-1.86-2.99-3.12-2.8-3.77,.27-.93,1.04-1.39,2.31-1.39,.2,0,.41,.01,.61,.03,.5,.07,1.07,.39,1.72,.97,.65,.58,1.23,.87,1.75,.87,.57,0,1.42-1.24,2.57-3.71,1.14-2.47,1.72-4.25,1.72-5.34,0-.41-.15-.61-.44-.61-.34,0-1.2,.52-2.58,1.55s-2.35,1.49-2.89,1.38c-.36-.09-.69-.32-.99-.68-.29-.36-.58-.72-.85-1.09-.34-.27-.7-.56-1.07-.87s-.58-.65-.63-1.04c-.05-.39,.19-.8,.71-1.24,.52-.44,.78-.84,.78-1.21v-3.94c0-.29-.08-.89-.24-1.78-.16-.9-.24-1.52-.24-1.89,0-.34,.05-.59,.14-.75,.23-.34,1.04-.53,2.45-.58,2.52-.11,3.81-.17,3.88-.17,1.11-.14,2.61-.36,4.49-.68,1.29-.2,2.04-.31,2.24-.31,1.45,0,2.18,.99,2.18,2.96Z"/>
    <path d="M714.86,197.16c0,.57-.22,1.05-.65,1.46-.43,.41-.96,.67-1.6,.78-.32,.07-.73-.03-1.22-.29-.5-.26-.91-.37-1.22-.32l-5.51,.75c.05,2.22,.05,3.85,0,4.9,1.29-.91,2.79-1.36,4.49-1.36,1.11,0,2.07,.35,2.87,1.05s1.21,1.64,1.21,2.82c0,1.75-.61,4.02-1.84,6.83-1.07,2.45-2.31,4.69-3.72,6.72-1.42,2.03-2.4,3.01-2.94,2.94-1.07-.13-2.62-1.13-4.67-2.99-2.05-1.86-2.99-3.12-2.8-3.77,.27-.93,1.04-1.39,2.31-1.39,.2,0,.41,.01,.61,.03,.5,.07,1.07,.39,1.72,.97,.65,.58,1.23,.87,1.75,.87,.57,0,1.42-1.24,2.57-3.71,1.14-2.47,1.72-4.25,1.72-5.34,0-.41-.15-.61-.44-.61-.34,0-1.2,.52-2.58,1.55s-2.35,1.49-2.89,1.38c-.36-.09-.69-.32-.99-.68-.29-.36-.58-.72-.85-1.09-.34-.27-.7-.56-1.07-.87s-.58-.65-.63-1.04c-.05-.39,.19-.8,.71-1.24,.52-.44,.78-.84,.78-1.21v-3.94c0-.29-.08-.89-.24-1.78-.16-.9-.24-1.52-.24-1.89,0-.34,.05-.59,.14-.75,.23-.34,1.04-.53,2.45-.58,2.52-.11,3.81-.17,3.88-.17,1.11-.14,2.61-.36,4.49-.68,1.29-.2,2.04-.31,2.24-.31,1.45,0,2.18,.99,2.18,2.96Z"/>
    <path d="M734.24,197.16c0,.57-.22,1.05-.65,1.46-.43,.41-.96,.67-1.6,.78-.32,.07-.73-.03-1.22-.29-.5-.26-.91-.37-1.22-.32l-5.51,.75c.05,2.22,.05,3.85,0,4.9,1.29-.91,2.79-1.36,4.49-1.36,1.11,0,2.07,.35,2.87,1.05s1.21,1.64,1.21,2.82c0,1.75-.61,4.02-1.84,6.83-1.07,2.45-2.31,4.69-3.72,6.72-1.42,2.03-2.4,3.01-2.94,2.94-1.07-.13-2.62-1.13-4.67-2.99-2.05-1.86-2.99-3.12-2.8-3.77,.27-.93,1.04-1.39,2.31-1.39,.2,0,.41,.01,.61,.03,.5,.07,1.07,.39,1.72,.97,.65,.58,1.23,.87,1.75,.87,.57,0,1.42-1.24,2.57-3.71,1.14-2.47,1.72-4.25,1.72-5.34,0-.41-.15-.61-.44-.61-.34,0-1.2,.52-2.58,1.55s-2.35,1.49-2.89,1.38c-.36-.09-.69-.32-.99-.68-.29-.36-.58-.72-.85-1.09-.34-.27-.7-.56-1.07-.87s-.58-.65-.63-1.04c-.05-.39,.19-.8,.71-1.24,.52-.44,.78-.84,.78-1.21v-3.94c0-.29-.08-.89-.24-1.78-.16-.9-.24-1.52-.24-1.89,0-.34,.05-.59,.14-.75,.23-.34,1.04-.53,2.45-.58,2.52-.11,3.81-.17,3.88-.17,1.11-.14,2.61-.36,4.49-.68,1.29-.2,2.04-.31,2.24-.31,1.45,0,2.18,.99,2.18,2.96Z"/>
    <path d="M752.8,208.99c.04,.11,.07,.25,.07,.41,0,1.56-1.27,4.02-3.81,7.38-2.56,3.4-4.6,5.24-6.12,5.51-.77,.13-1.93-.49-3.47-1.87-1.45-1.36-2.24-2.38-2.38-3.06-.11-.52,.06-1,.51-1.43,.45-.43,.96-.63,1.53-.61,.72,.04,1.43,.32,2.12,.82,.69,.5,1.21,.77,1.55,.82s1.27-.95,2.79-2.98c1.52-2.03,2.28-3.43,2.28-4.2,0-.38-.27-.58-.82-.58-.29,0-.64,.14-1.04,.42s-.79,.55-1.17,.8c-.29,.11-.65,.36-1.07,.73-.42,.37-.81,.56-1.17,.56-.7,0-1.42-.36-2.14-1.09-.79-.77-1.17-1.59-1.12-2.45,.02-.57,.45-1,1.29-1.29,1.18-.41,1.84-.66,1.97-.75,.95-.73,1.99-1.88,3.13-3.45,1.13-1.58,1.7-2.73,1.7-3.45,0-.2-.05-.35-.14-.44-.14-.14-.67,.18-1.6,.95-.84,.68-1.62,1.43-2.35,2.24-.23,.18-.53,.6-.92,1.26-.29,.5-.67,.83-1.12,.99-.25,.09-.5,.14-.75,.14-.73,0-1.4-.27-2.02-.82s-1.04-1.16-1.24-1.84c-.16-.54,1.31-1.98,4.4-4.32,3.09-2.33,5.3-3.5,6.61-3.5,1.13,0,2.04,.4,2.72,1.21,.68,.81,1,1.76,.95,2.87-.07,1.84-.39,3.32-.95,4.45-.36,.75-1.2,1.85-2.52,3.3,1.2,.32,2.11,.68,2.72,1.09,.75,.52,1.27,1.25,1.56,2.18Z"/>
    <path d="M772.39,197.9c-.11,.45-.49,.88-1.12,1.29-.7,.43-1.15,.84-1.33,1.22l-7.34,16.52c-.2,.45-.34,1.56-.41,3.33-.05,1.25-.48,2.03-1.29,2.35-.36,.13-.75,.2-1.16,.2-1.02,0-1.97-.35-2.84-1.04-.87-.69-1.29-1.47-1.24-2.33,.04-.61,.35-1.16,.92-1.63,.68-.57,1.1-1.02,1.26-1.36l7.82-17.48-4.08,1.43c-.09,.05-.57,.29-1.43,.75-.5,.27-.97,.36-1.43,.27-.54-.09-1.07-.5-1.56-1.22-.5-.73-.75-1.45-.75-2.18,0-.54,.16-1.01,.49-1.39,.33-.38,.89-.55,1.68-.51,1.09,.07,1.75,.07,1.97,0,1.36-.2,3.27-.71,5.75-1.53,2.13-.7,3.27-1.03,3.43-.99,.86,.25,1.54,.68,2.02,1.29,.49,.61,.73,1.31,.73,2.11,0,.29-.03,.59-.1,.88Z"/>
    <path d="M791.02,208.17c0,3.88-.56,7.16-1.67,9.86-1.41,3.31-3.43,4.91-6.09,4.79-2.7-.11-4.67-1.78-5.92-5-.95-2.49-1.43-5.71-1.43-9.66,0-3.08,.57-5.99,1.7-8.74,1.47-3.58,3.56-5.37,6.26-5.37,2.4,0,4.25,1.6,5.54,4.79,1.07,2.61,1.6,5.71,1.6,9.32Zm-4.9,0c-.02-2.92-.14-4.96-.34-6.12-.39-2.18-1.16-3.26-2.31-3.26-.66,0-1.27,1.09-1.84,3.26-.5,1.97-.77,4.01-.82,6.12-.07,2.29,.12,4.5,.58,6.63,.5,2.38,1.12,3.57,1.87,3.57,.66,0,1.3-1.19,1.94-3.57,.63-2.31,.94-4.52,.92-6.63Z"/>
    <path d="M810.4,208.17c0,3.88-.56,7.16-1.67,9.86-1.41,3.31-3.43,4.91-6.09,4.79-2.7-.11-4.67-1.78-5.92-5-.95-2.49-1.43-5.71-1.43-9.66,0-3.08,.57-5.99,1.7-8.74,1.47-3.58,3.56-5.37,6.26-5.37,2.4,0,4.25,1.6,5.54,4.79,1.07,2.61,1.6,5.71,1.6,9.32Zm-4.9,0c-.02-2.92-.14-4.96-.34-6.12-.39-2.18-1.16-3.26-2.31-3.26-.66,0-1.27,1.09-1.84,3.26-.5,1.97-.77,4.01-.82,6.12-.07,2.29,.12,4.5,.58,6.63,.5,2.38,1.12,3.57,1.87,3.57,.66,0,1.3-1.19,1.94-3.57,.63-2.31,.94-4.52,.92-6.63Z"/>
  </g>
  <g>
    <path d="M968.36,135.24c-.09,1.81-.07,4.42,.07,7.82,0,.23,.08,.54,.24,.95,.16,.41,.24,.7,.24,.88,0,.45-.38,.84-1.16,1.16-.16,.07-.36,.1-.61,.1-.75,0-1.54-.2-2.38-.61-1-.48-1.5-1.04-1.5-1.7,0-.29,.11-.68,.32-1.16,.21-.48,.42-.94,.63-1.39v-5.85l-4.56,.95c0,1.11,.01,2.67,.03,4.69,.02,2.02,.03,3.04,.03,3.06,0,.27,.07,.69,.22,1.26,.15,.57,.22,.98,.22,1.22,0,.45-.15,.82-.46,1.1-.31,.28-.72,.42-1.24,.42s-1.1-.15-1.67-.44c-.57-.29-.95-.59-1.14-.9-.19-.31-.29-.53-.29-.66,0-.04,.09-.28,.27-.71,0-.97-.01-2.56-.03-4.76-.02-2.2-.03-3.6-.03-4.22-.02-.07-.29-.56-.82-1.46-.32-.52-.43-1.01-.34-1.46,.04-.25,.18-.45,.41-.61,.23-.16,.45-.32,.68-.48-.07-5.39-.05-9.04,.07-10.95-.2-.41-.31-.74-.31-.99,0-.5,.35-.92,1.05-1.26,.29-.14,.71-.2,1.26-.2,1.77,0,2.84,.48,3.23,1.43,.07,.18,.1,.35,.1,.51,0,.32-.2,.79-.6,1.41-.4,.62-.59,1.14-.59,1.55-.14,3.63-.16,6.32-.07,8.09,2.22-.39,3.69-.68,4.42-.88-.2-2.77-.18-6.01,.07-9.72-.2-.57-.31-1.03-.31-1.39,0-.68,.42-1.24,1.26-1.67,.18-.09,.44-.14,.78-.14,.79,0,1.56,.19,2.31,.58,.86,.45,1.3,1.03,1.33,1.73,.02,.32-.18,.71-.59,1.19-.42,.48-.63,.9-.63,1.26-.05,3.26-.02,6.01,.07,8.23,.36,.29,.73,.73,1.11,1.29,.37,.57,.56,1.03,.56,1.39s-.19,.63-.58,.82c-.39,.18-.75,.35-1.09,.51Z"/>
    <path d="M984.78,142.96c-.18,.86-.79,1.78-1.84,2.75-.16,.25-.78,.58-1.87,.99-1.25,.48-2.32,.68-3.23,.61-1.7-.11-3.04-1.09-4.01-2.92-.88-1.7-1.33-3.79-1.33-6.26,0-2.67,.5-5.02,1.5-7.04,1.11-2.22,2.59-3.47,4.45-3.74,.36-.05,.71-.07,1.05-.07,2.7,0,4.18,1.65,4.45,4.96,.14,1.52-.46,3.17-1.8,4.96-1.45,1.97-3.31,3.35-5.58,4.15,.25,.91,.44,1.5,.58,1.77,.32,.57,.75,.85,1.29,.85s1.08-.2,1.67-.61c.5-.34,.84-.67,1.02-.99,.09-.05,.18-.3,.27-.77,.09-.46,.33-.8,.71-1,.14-.07,.29-.1,.48-.1,.54,0,1.07,.27,1.58,.8,.51,.53,.71,1.08,.59,1.65Zm-5.34-11.97c-.91,0-1.64,.65-2.21,1.94-.75,1.72-1.05,3.42-.92,5.1,1.07-.34,2.05-1.13,2.96-2.38,.91-1.25,1.36-2.36,1.36-3.33,0-.88-.4-1.33-1.19-1.33Z"/>
    <path d="M1002.94,144.36c-.05,.5-.37,.92-.99,1.27-.61,.35-1.29,.53-2.04,.53-1.11,0-1.87-.35-2.28-1.05,.18-6.98-.02-10.52-.61-10.61-.57-.09-1.95,3.04-4.15,9.38v2.04c-.02,.82-.24,1.39-.66,1.73-.42,.34-.87,.51-1.34,.51-.82,0-1.69-.44-2.62-1.33-.27-.23-.42-1.95-.44-5.17,.02,1.97,.03-1.69,.03-10.98,0-.2-.02-.48-.07-.83-.05-.35-.07-.61-.07-.77,0-.43,.11-.8,.34-1.12,.27-.41,.7-.61,1.29-.61s1.25,.19,1.92,.56c.67,.37,1.07,.73,1.21,1.07,.09,.23,.14,.45,.14,.68s-.09,.54-.27,.95c-.18,.41-.27,.75-.27,1.02v4.69c1.43-3.04,2.5-5.04,3.23-6.02,1.29-1.68,2.75-2.46,4.39-2.35,.97,.07,1.67,.97,2.07,2.72,.32,1.31,.49,3.26,.51,5.85v6.12c.05,.16,.2,.44,.48,.85,.16,.23,.23,.51,.2,.85Z"/>
    <path d="M1018.54,129.19c-.09,.48-.52,.8-1.29,.99-.91,.23-1.49,.49-1.73,.78l-5.54,6.39v5.17c0,.5,.14,1,.42,1.51,.28,.51,.43,.9,.43,1.17s-.08,.58-.24,.92c-.39,.86-1.17,1.29-2.35,1.29-.82,0-1.46-.26-1.94-.78-.32-.34-.48-.77-.48-1.29,0-.18,.02-.48,.07-.88,.05-.41,.07-.74,.07-.99v-12.72c0-.2-.09-.45-.27-.75-.18-.29-.27-.53-.27-.71,0-.14,.04-.29,.14-.48,.29-.54,1.21-.82,2.75-.82,1.2,0,1.88,.28,2.04,.85,.07,.23,.1,.42,.1,.58,0,.25-.09,.44-.27,.58-.18,.14-.27,.27-.27,.41l.07,1.22,2.92-3.09c.34-.39,.7-.77,1.07-1.16,.37-.39,.81-.6,1.31-.65,.77-.07,1.51,.1,2.23,.51,.71,.41,1.07,.94,1.07,1.6,0,.11-.01,.23-.03,.34Z"/>
    <path d="M1036.36,129.6c.07,.45-.05,.94-.34,1.46-.52,.86-.79,1.33-.82,1.39-.95,2.27-2.43,5.92-4.42,10.95-.91,2.4-1.47,4.57-1.7,6.49-.05,.18-.06,.58-.03,1.19,.02,.5-.06,.87-.24,1.12-.36,.48-.91,.71-1.63,.71-1.29,0-2.13-.49-2.52-1.46-.09-.25-.14-.46-.14-.65,0-.23,.09-.48,.27-.77,.18-.28,.29-.52,.34-.7l.82-4.25-4.9-14.08c-.07-.18-.25-.56-.54-1.12-.2-.41-.31-.76-.31-1.05,0-.16,.02-.32,.07-.48,.23-.82,1-1.22,2.31-1.22,.82,0,1.46,.14,1.94,.41,.57,.34,.9,.94,.99,1.8,.11,1.41,.19,2.19,.24,2.35l2.24,7.07,3.47-8.77c.02-.07,.12-.57,.31-1.5,.11-.57,.35-.95,.71-1.16,.23-.14,.49-.2,.78-.2,.66,0,1.31,.24,1.97,.73,.66,.49,1.03,1.06,1.12,1.72Z"/>
    <path d="M970.54,173.87c0,3.88-.56,7.16-1.67,9.86-1.41,3.31-3.43,4.91-6.09,4.79-2.7-.11-4.67-1.78-5.92-5-.95-2.49-1.43-5.71-1.43-9.66,0-3.08,.57-6,1.7-8.74,1.47-3.58,3.56-5.37,6.26-5.37,2.4,0,4.25,1.6,5.54,4.79,1.07,2.61,1.6,5.71,1.6,9.32Zm-4.9,0c-.02-2.92-.14-4.96-.34-6.12-.39-2.18-1.16-3.26-2.31-3.26-.66,0-1.27,1.09-1.84,3.26-.5,1.97-.77,4.01-.82,6.12-.07,2.29,.12,4.5,.58,6.63,.5,2.38,1.12,3.57,1.87,3.57,.66,0,1.3-1.19,1.94-3.57,.63-2.31,.94-4.52,.92-6.63Z"/>
    <path d="M991.28,162.85c0,.57-.22,1.05-.65,1.46-.43,.41-.96,.67-1.6,.78-.32,.07-.73-.03-1.22-.29-.5-.26-.91-.37-1.22-.32l-5.51,.75c.05,2.22,.05,3.85,0,4.9,1.29-.91,2.79-1.36,4.49-1.36,1.11,0,2.07,.35,2.87,1.05s1.21,1.64,1.21,2.82c0,1.75-.61,4.02-1.84,6.83-1.07,2.45-2.31,4.69-3.72,6.72-1.42,2.03-2.4,3.01-2.94,2.94-1.07-.14-2.62-1.13-4.67-2.99-2.05-1.86-2.99-3.12-2.8-3.77,.27-.93,1.04-1.39,2.31-1.39,.2,0,.41,.01,.61,.03,.5,.07,1.07,.39,1.72,.97,.65,.58,1.23,.87,1.75,.87,.57,0,1.42-1.24,2.57-3.71,1.14-2.47,1.72-4.25,1.72-5.34,0-.41-.15-.61-.44-.61-.34,0-1.2,.52-2.58,1.55-1.38,1.03-2.35,1.49-2.89,1.38-.36-.09-.69-.32-.99-.68-.29-.36-.58-.73-.85-1.09-.34-.27-.7-.56-1.07-.87s-.58-.65-.63-1.04c-.05-.39,.19-.8,.71-1.24,.52-.44,.78-.84,.78-1.21v-3.94c0-.29-.08-.89-.24-1.78-.16-.9-.24-1.52-.24-1.89,0-.34,.05-.59,.14-.75,.23-.34,1.04-.53,2.45-.58,2.52-.11,3.81-.17,3.88-.17,1.11-.14,2.61-.36,4.49-.68,1.29-.2,2.04-.31,2.24-.31,1.45,0,2.18,.99,2.18,2.96Z"/>
    <path d="M1010.66,162.85c0,.57-.22,1.05-.65,1.46-.43,.41-.96,.67-1.6,.78-.32,.07-.73-.03-1.22-.29-.5-.26-.91-.37-1.22-.32l-5.51,.75c.05,2.22,.05,3.85,0,4.9,1.29-.91,2.79-1.36,4.49-1.36,1.11,0,2.07,.35,2.87,1.05s1.21,1.64,1.21,2.82c0,1.75-.61,4.02-1.84,6.83-1.07,2.45-2.31,4.69-3.72,6.72-1.42,2.03-2.4,3.01-2.94,2.94-1.07-.14-2.62-1.13-4.67-2.99-2.05-1.86-2.99-3.12-2.8-3.77,.27-.93,1.04-1.39,2.31-1.39,.2,0,.41,.01,.61,.03,.5,.07,1.07,.39,1.72,.97,.65,.58,1.23,.87,1.75,.87,.57,0,1.42-1.24,2.57-3.71,1.14-2.47,1.72-4.25,1.72-5.34,0-.41-.15-.61-.44-.61-.34,0-1.2,.52-2.58,1.55-1.38,1.03-2.35,1.49-2.89,1.38-.36-.09-.69-.32-.99-.68-.29-.36-.58-.73-.85-1.09-.34-.27-.7-.56-1.07-.87s-.58-.65-.63-1.04c-.05-.39,.19-.8,.71-1.24,.52-.44,.78-.84,.78-1.21v-3.94c0-.29-.08-.89-.24-1.78-.16-.9-.24-1.52-.24-1.89,0-.34,.05-.59,.14-.75,.23-.34,1.04-.53,2.45-.58,2.52-.11,3.81-.17,3.88-.17,1.11-.14,2.61-.36,4.49-.68,1.29-.2,2.04-.31,2.24-.31,1.45,0,2.18,.99,2.18,2.96Z"/>
    <path d="M1030.04,162.85c0,.57-.22,1.05-.65,1.46-.43,.41-.96,.67-1.6,.78-.32,.07-.73-.03-1.22-.29-.5-.26-.91-.37-1.22-.32l-5.51,.75c.05,2.22,.05,3.85,0,4.9,1.29-.91,2.79-1.36,4.49-1.36,1.11,0,2.07,.35,2.87,1.05s1.21,1.64,1.21,2.82c0,1.75-.61,4.02-1.84,6.83-1.07,2.45-2.31,4.69-3.72,6.72-1.42,2.03-2.4,3.01-2.94,2.94-1.07-.14-2.62-1.13-4.67-2.99-2.05-1.86-2.99-3.12-2.8-3.77,.27-.93,1.04-1.39,2.31-1.39,.2,0,.41,.01,.61,.03,.5,.07,1.07,.39,1.72,.97,.65,.58,1.23,.87,1.75,.87,.57,0,1.42-1.24,2.57-3.71,1.14-2.47,1.72-4.25,1.72-5.34,0-.41-.15-.61-.44-.61-.34,0-1.2,.52-2.58,1.55-1.38,1.03-2.35,1.49-2.89,1.38-.36-.09-.69-.32-.99-.68-.29-.36-.58-.73-.85-1.09-.34-.27-.7-.56-1.07-.87s-.58-.65-.63-1.04c-.05-.39,.19-.8,.71-1.24,.52-.44,.78-.84,.78-1.21v-3.94c0-.29-.08-.89-.24-1.78-.16-.9-.24-1.52-.24-1.89,0-.34,.05-.59,.14-.75,.23-.34,1.04-.53,2.45-.58,2.52-.11,3.81-.17,3.88-.17,1.11-.14,2.61-.36,4.49-.68,1.29-.2,2.04-.31,2.24-.31,1.45,0,2.18,.99,2.18,2.96Z"/>
    <path d="M1047.17,180.19c0,1.45-1.01,3.16-3.03,5.12-2.02,1.96-3.71,2.94-5.07,2.94-.97,0-2.14-.62-3.5-1.87-1.47-1.36-2.21-2.65-2.21-3.88,0-1.11,.49-2.52,1.46-4.22,.14-.23,1.05-1.63,2.75-4.22-2.74-1.5-4.03-3.74-3.88-6.73,.07-1.4,.74-2.9,2.01-4.49,1.36-1.68,2.84-2.7,4.45-3.06,.59-.14,1.16-.2,1.7-.2,1.61,0,2.84,.58,3.71,1.73,.79,1.02,1.19,2.35,1.19,3.98,0,1.27-.35,2.56-1.05,3.88-.32,.61-1.12,1.84-2.41,3.67,1.36,1.36,2.3,2.47,2.82,3.33,.7,1.2,1.05,2.54,1.05,4.01Zm-5.98,1.36c.52-.66,.78-1.44,.78-2.35s-.26-1.39-.78-1.6c-.66,.91-1.33,1.81-2.01,2.72-.82,1.2-1.22,2.07-1.22,2.62,0,.43,.2,.65,.61,.65,.68,0,1.55-.68,2.62-2.04Zm.58-17.17c-.36,0-.79,.2-1.28,.6-.49,.4-.84,.82-1.07,1.27-.41,.82-.61,1.5-.61,2.04,0,.75,.36,1.36,1.09,1.84,1.63-3.01,2.45-4.75,2.45-5.2,0-.36-.19-.54-.58-.54Z"/>
    <path d="M1067.98,174.68c.04,.11,.07,.25,.07,.41,0,1.56-1.27,4.02-3.81,7.38-2.56,3.4-4.6,5.24-6.12,5.51-.77,.14-1.93-.49-3.47-1.87-1.45-1.36-2.24-2.38-2.38-3.06-.11-.52,.06-1,.51-1.43,.45-.43,.96-.63,1.53-.61,.72,.05,1.43,.32,2.12,.82,.69,.5,1.21,.77,1.55,.82s1.27-.95,2.79-2.98c1.52-2.03,2.28-3.43,2.28-4.2,0-.38-.27-.58-.82-.58-.29,0-.64,.14-1.04,.42-.4,.28-.79,.55-1.17,.8-.29,.11-.65,.36-1.07,.73-.42,.37-.81,.56-1.17,.56-.7,0-1.42-.36-2.14-1.09-.79-.77-1.17-1.59-1.12-2.45,.02-.57,.45-1,1.29-1.29,1.18-.41,1.84-.66,1.97-.75,.95-.73,1.99-1.88,3.13-3.45,1.13-1.58,1.7-2.73,1.7-3.45,0-.2-.05-.35-.14-.44-.14-.14-.67,.18-1.6,.95-.84,.68-1.62,1.43-2.35,2.24-.23,.18-.53,.6-.92,1.26-.29,.5-.67,.83-1.12,.99-.25,.09-.5,.14-.75,.14-.73,0-1.4-.27-2.02-.82s-1.04-1.16-1.24-1.84c-.16-.54,1.31-1.98,4.4-4.32,3.09-2.33,5.3-3.5,6.61-3.5,1.13,0,2.04,.4,2.72,1.21,.68,.81,1,1.76,.95,2.87-.07,1.84-.39,3.32-.95,4.45-.36,.75-1.2,1.85-2.52,3.3,1.2,.32,2.11,.68,2.72,1.09,.75,.52,1.27,1.25,1.56,2.18Z"/>
    <path d="M1086.81,173.87c0,3.88-.56,7.16-1.67,9.86-1.41,3.31-3.43,4.91-6.09,4.79-2.7-.11-4.67-1.78-5.92-5-.95-2.49-1.43-5.71-1.43-9.66,0-3.08,.57-6,1.7-8.74,1.47-3.58,3.56-5.37,6.26-5.37,2.4,0,4.25,1.6,5.54,4.79,1.07,2.61,1.6,5.71,1.6,9.32Zm-4.9,0c-.02-2.92-.14-4.96-.34-6.12-.39-2.18-1.16-3.26-2.31-3.26-.66,0-1.27,1.09-1.84,3.26-.5,1.97-.77,4.01-.82,6.12-.07,2.29,.12,4.5,.58,6.63,.5,2.38,1.12,3.57,1.87,3.57,.66,0,1.3-1.19,1.94-3.57,.63-2.31,.94-4.52,.92-6.63Z"/>
    <path d="M1106.19,173.87c0,3.88-.56,7.16-1.67,9.86-1.41,3.31-3.43,4.91-6.09,4.79-2.7-.11-4.67-1.78-5.92-5-.95-2.49-1.43-5.71-1.43-9.66,0-3.08,.57-6,1.7-8.74,1.47-3.58,3.56-5.37,6.26-5.37,2.4,0,4.25,1.6,5.54,4.79,1.07,2.61,1.6,5.71,1.6,9.32Zm-4.9,0c-.02-2.92-.14-4.96-.34-6.12-.39-2.18-1.16-3.26-2.31-3.26-.66,0-1.27,1.09-1.84,3.26-.5,1.97-.77,4.01-.82,6.12-.07,2.29,.12,4.5,.58,6.63,.5,2.38,1.12,3.57,1.87,3.57,.66,0,1.3-1.19,1.94-3.57,.63-2.31,.94-4.52,.92-6.63Z"/>
  </g>
  <g>
    <path d="M415.19,200.16c0,1.77-.56,3.31-1.68,4.64s-2.51,1.99-4.17,1.99c-3.33,0-5.78-1.59-7.34-4.76-1.7-1.11-2.55-2.05-2.55-2.82,0-.38,.24-.7,.71-.95,.93-.5,1.78-.75,2.55-.75,1.68,0,2.8,1,3.37,2.99,.27,.54,.56,1.09,.85,1.63,.29,.54,.69,.82,1.19,.82,1.34,0,2.01-.95,2.01-2.86,0-1.7-.31-2.84-.92-3.43-.27-.25-1.36-.77-3.26-1.56-1.52-.63-2.74-1.72-3.67-3.26-.84-1.41-1.27-2.87-1.29-4.39-.02-2.45,.59-4.62,1.84-6.53,1.31-2.04,2.95-3.06,4.9-3.06,2.27,0,3.92,.91,4.96,2.72,.68,1.13,1.06,2.54,1.16,4.22,.25,.86,.37,1.64,.37,2.35,0,.45-.06,.83-.17,1.12-.34,.84-1.01,1.26-2.01,1.26-.75,0-1.43-.27-2.04-.82-.68-.59-1.1-1.42-1.26-2.48-.07-.36,0-.73,.22-1.09,.22-.36,.32-.57,.32-.61s-.02-.09-.07-.14c.02-.11,.03-.23,.03-.34,0-.68-.4-1-1.19-.95-.77,.05-1.37,.56-1.8,1.53-.39,.84-.56,1.8-.51,2.89,.07,1.93,1.34,3.47,3.81,4.62,1.95,.91,3.3,1.8,4.05,2.69,1.07,1.27,1.6,3.05,1.6,5.34Z"/>
    <path d="M430.18,202.23c-.18,.86-.79,1.78-1.84,2.75-.16,.25-.78,.58-1.87,.99-1.25,.48-2.32,.68-3.23,.61-1.7-.11-3.04-1.09-4.01-2.92-.88-1.7-1.33-3.79-1.33-6.26,0-2.67,.5-5.02,1.5-7.04,1.11-2.22,2.59-3.47,4.45-3.74,.36-.05,.71-.07,1.05-.07,2.7,0,4.18,1.65,4.45,4.96,.14,1.52-.46,3.17-1.8,4.96-1.45,1.97-3.31,3.35-5.58,4.15,.25,.91,.44,1.5,.58,1.77,.32,.57,.75,.85,1.29,.85s1.08-.2,1.67-.61c.5-.34,.84-.67,1.02-.99,.09-.05,.18-.3,.27-.77,.09-.46,.33-.8,.71-1,.14-.07,.29-.1,.48-.1,.54,0,1.07,.27,1.58,.8,.51,.53,.71,1.08,.59,1.65Zm-5.34-11.97c-.91,0-1.64,.65-2.21,1.94-.75,1.72-1.05,3.42-.92,5.1,1.07-.34,2.05-1.13,2.96-2.38,.91-1.25,1.36-2.36,1.36-3.33,0-.88-.4-1.33-1.19-1.33Z"/>
    <path d="M448.34,203.63c-.05,.5-.37,.92-.99,1.27-.61,.35-1.29,.53-2.04,.53-1.11,0-1.87-.35-2.28-1.05,.18-6.98-.02-10.52-.61-10.61-.57-.09-1.95,3.04-4.15,9.38v2.04c-.02,.82-.24,1.39-.66,1.73-.42,.34-.87,.51-1.34,.51-.82,0-1.69-.44-2.62-1.33-.27-.23-.42-1.95-.44-5.17,.02,1.97,.03-1.69,.03-10.98,0-.2-.02-.48-.07-.83-.05-.35-.07-.61-.07-.77,0-.43,.11-.8,.34-1.12,.27-.41,.7-.61,1.29-.61s1.25,.19,1.92,.56c.67,.37,1.07,.73,1.21,1.07,.09,.23,.14,.45,.14,.68s-.09,.54-.27,.95c-.18,.41-.27,.75-.27,1.02v4.69c1.43-3.04,2.5-5.04,3.23-6.02,1.29-1.68,2.75-2.46,4.39-2.35,.97,.07,1.67,.97,2.07,2.72,.32,1.31,.49,3.26,.51,5.85v6.12c.05,.16,.2,.44,.48,.85,.16,.23,.23,.51,.2,.85Z"/>
    <path d="M462.85,202.23c-.18,.86-.79,1.78-1.84,2.75-.16,.25-.78,.58-1.87,.99-1.25,.48-2.32,.68-3.23,.61-1.7-.11-3.04-1.09-4.01-2.92-.88-1.7-1.33-3.79-1.33-6.26,0-2.67,.5-5.02,1.5-7.04,1.11-2.22,2.59-3.47,4.45-3.74,.36-.05,.71-.07,1.05-.07,2.7,0,4.18,1.65,4.45,4.96,.14,1.52-.46,3.17-1.8,4.96-1.45,1.97-3.31,3.35-5.58,4.15,.25,.91,.44,1.5,.58,1.77,.32,.57,.75,.85,1.29,.85s1.08-.2,1.67-.61c.5-.34,.84-.67,1.02-.99,.09-.05,.18-.3,.27-.77,.09-.46,.33-.8,.71-1,.14-.07,.29-.1,.48-.1,.54,0,1.07,.27,1.58,.8,.51,.53,.71,1.08,.59,1.65Zm-5.34-11.97c-.91,0-1.64,.65-2.21,1.94-.75,1.72-1.05,3.42-.92,5.1,1.07-.34,2.05-1.13,2.96-2.38,.91-1.25,1.36-2.36,1.36-3.33,0-.88-.4-1.33-1.19-1.33Z"/>
    <path d="M477.17,200.16c-.02,.5-.24,1.01-.65,1.53-.63,.75-1.04,1.31-1.22,1.7-1.43,2.18-2.9,3.26-4.42,3.26-1.79,0-3.18-.91-4.18-2.72-.88-1.65-1.33-3.74-1.33-6.26,0-2.88,.54-5.38,1.63-7.51,1.2-2.36,2.75-3.54,4.66-3.54,1.5,0,2.71,.83,3.64,2.48,.77,1.41,1.16,2.94,1.16,4.59,0,.45-.03,.85-.1,1.19-.16,.77-.81,1.16-1.94,1.16-.88,0-1.56-.25-2.04-.75-.23-.25-.34-.83-.34-1.73,0-.23,.01-.55,.03-.99v-.99c0-1.02-.18-1.53-.54-1.53-.39,0-.79,1.12-1.22,3.35-.43,2.23-.65,4.32-.65,6.27,0,2.27,.34,3.4,1.02,3.4,.88,0,1.54-.71,1.97-2.14,.18-.2,.28-.61,.31-1.22,0-.54,.14-.9,.41-1.07,.27-.17,.67-.25,1.19-.25,.68,0,1.27,.15,1.77,.44,.59,.34,.87,.78,.85,1.33Z"/>
    <path d="M494.71,204.37c-.34,1.11-1.18,1.67-2.52,1.67-.45,0-.82-.08-1.09-.24-.36-.25-.61-.75-.75-1.5-.27-1.29-.54-2.3-.82-3.03-.07,1.25-.75,2.51-2.04,3.79s-2.6,1.92-3.91,1.92c-1.65,0-2.8-1.1-3.43-3.3-.23-.82-.34-1.59-.34-2.31,0-2.11,1.08-3.91,3.23-5.41,1.77-1.04,3.55-2.07,5.34-3.09,.09-.39,.14-.76,.14-1.12,0-.7-.19-1.12-.58-1.24-.39-.12-.71-.19-.99-.19-.48,0-.87,.15-1.17,.46-.31,.31-.6,.6-.87,.87-.27,.18-.62,.6-1.05,1.26-.34,.52-.71,.81-1.12,.85-.59,.07-1.12-.14-1.6-.61-.48-.48-.71-1.03-.71-1.67,0-.36,.09-.69,.27-.99,.52-.86,1.3-1.61,2.35-2.24,1.59-.95,3.57-1.43,5.95-1.43,1.52,0,2.56,.73,3.13,2.18,.36,.97,.63,2.8,.82,5.47,.2,3.24,.45,5.61,.75,7.11,.05,.29,.24,.67,.58,1.12,.34,.45,.51,.85,.51,1.19,0,.16-.02,.32-.07,.48Zm-5.92-8.36c-.68,.36-1.35,.74-2.02,1.12-.67,.39-1.29,.9-1.85,1.53-.82,.93-1.22,1.72-1.22,2.38,0,.54,.2,1.11,.61,1.7,.23,.32,.48,.48,.75,.48,.59,0,1.23-.66,1.92-1.97,.69-1.31,1.3-3.06,1.82-5.24Z"/>
    <path d="M416.21,233.14c0,3.88-.56,7.16-1.67,9.86-1.41,3.31-3.43,4.91-6.09,4.79-2.7-.11-4.67-1.78-5.92-5-.95-2.49-1.43-5.71-1.43-9.66,0-3.08,.57-5.99,1.7-8.74,1.47-3.58,3.56-5.37,6.26-5.37,2.4,0,4.25,1.6,5.54,4.79,1.07,2.61,1.6,5.71,1.6,9.32Zm-4.9,0c-.02-2.92-.14-4.96-.34-6.12-.39-2.18-1.16-3.26-2.31-3.26-.66,0-1.27,1.09-1.84,3.26-.5,1.97-.77,4.01-.82,6.12-.07,2.29,.12,4.5,.58,6.63,.5,2.38,1.12,3.57,1.87,3.57,.66,0,1.3-1.19,1.94-3.57,.63-2.31,.94-4.52,.92-6.63Z"/>
    <path d="M436.95,222.12c0,.57-.22,1.05-.65,1.46-.43,.41-.96,.67-1.6,.78-.32,.07-.73-.03-1.22-.29-.5-.26-.91-.37-1.22-.32l-5.51,.75c.05,2.22,.05,3.85,0,4.9,1.29-.91,2.79-1.36,4.49-1.36,1.11,0,2.07,.35,2.87,1.05,.8,.7,1.21,1.64,1.21,2.82,0,1.75-.61,4.02-1.84,6.83-1.07,2.45-2.31,4.69-3.72,6.72-1.42,2.03-2.4,3.01-2.94,2.94-1.07-.13-2.62-1.13-4.67-2.99-2.05-1.86-2.99-3.12-2.8-3.77,.27-.93,1.04-1.39,2.31-1.39,.2,0,.41,.01,.61,.03,.5,.07,1.07,.39,1.72,.97,.65,.58,1.23,.87,1.75,.87,.57,0,1.42-1.24,2.57-3.71,1.14-2.47,1.72-4.25,1.72-5.34,0-.41-.15-.61-.44-.61-.34,0-1.2,.52-2.58,1.55s-2.35,1.49-2.89,1.38c-.36-.09-.69-.32-.99-.68-.29-.36-.58-.72-.85-1.09-.34-.27-.7-.56-1.07-.87s-.58-.65-.63-1.04c-.05-.38,.19-.8,.71-1.24,.52-.44,.78-.84,.78-1.21v-3.95c0-.29-.08-.89-.24-1.78-.16-.9-.24-1.52-.24-1.89,0-.34,.05-.59,.14-.75,.23-.34,1.04-.53,2.45-.58,2.52-.11,3.81-.17,3.88-.17,1.11-.13,2.61-.36,4.49-.68,1.29-.2,2.04-.31,2.24-.31,1.45,0,2.18,.99,2.18,2.96Z"/>
    <path d="M456.33,222.12c0,.57-.22,1.05-.65,1.46-.43,.41-.96,.67-1.6,.78-.32,.07-.73-.03-1.22-.29-.5-.26-.91-.37-1.22-.32l-5.51,.75c.05,2.22,.05,3.85,0,4.9,1.29-.91,2.79-1.36,4.49-1.36,1.11,0,2.07,.35,2.87,1.05,.8,.7,1.21,1.64,1.21,2.82,0,1.75-.61,4.02-1.84,6.83-1.07,2.45-2.31,4.69-3.72,6.72-1.42,2.03-2.4,3.01-2.94,2.94-1.07-.13-2.62-1.13-4.67-2.99-2.05-1.86-2.99-3.12-2.8-3.77,.27-.93,1.04-1.39,2.31-1.39,.2,0,.41,.01,.61,.03,.5,.07,1.07,.39,1.72,.97,.65,.58,1.23,.87,1.75,.87,.57,0,1.42-1.24,2.57-3.71,1.14-2.47,1.72-4.25,1.72-5.34,0-.41-.15-.61-.44-.61-.34,0-1.2,.52-2.58,1.55s-2.35,1.49-2.89,1.38c-.36-.09-.69-.32-.99-.68-.29-.36-.58-.72-.85-1.09-.34-.27-.7-.56-1.07-.87s-.58-.65-.63-1.04c-.05-.38,.19-.8,.71-1.24,.52-.44,.78-.84,.78-1.21v-3.95c0-.29-.08-.89-.24-1.78-.16-.9-.24-1.52-.24-1.89,0-.34,.05-.59,.14-.75,.23-.34,1.04-.53,2.45-.58,2.52-.11,3.81-.17,3.88-.17,1.11-.13,2.61-.36,4.49-.68,1.29-.2,2.04-.31,2.24-.31,1.45,0,2.18,.99,2.18,2.96Z"/>
    <path d="M476.66,234.77c.04,.61-.19,1.14-.7,1.6-.51,.45-1.07,.68-1.68,.68-.16,0-.4-.04-.73-.14-.33-.09-.61-.12-.83-.1-.38,.07-1,.11-1.84,.14,0,3.24-.02,4.99-.07,5.24,0,.45,.15,1.05,.46,1.8,.31,.75,.46,1.28,.46,1.6,0,.77-.65,1.46-1.94,2.07-.14,.07-.31,.1-.51,.1-.82,0-1.7-.44-2.65-1.33-.95-.88-1.37-1.76-1.26-2.62,.02-.18,.22-.49,.59-.93,.37-.44,.56-.92,.56-1.44-.05-1.72-.07-2.92-.07-3.6-1.09,.29-2.52,.57-4.28,.82-.2,.05-.51,.22-.92,.51-.32,.25-.62,.35-.92,.31-.61-.09-1.22-.5-1.84-1.22-.68-.82-.97-1.63-.88-2.45,.04-.52,.28-.89,.71-1.12,.54-.29,.87-.53,.99-.71l6.94-12.44c.14-.25,.2-.66,.19-1.22-.01-.57,.08-.97,.29-1.22,.29-.36,.69-.54,1.19-.54,.91,0,1.89,.46,2.94,1.39,1.05,.93,1.58,1.83,1.58,2.69,0,.43-.27,1.19-.82,2.28s-.82,1.98-.82,2.69v5.37c.59-.25,1.52-.52,2.79-.82,.7-.04,1.38,.2,2.02,.73,.65,.53,.99,1.17,1.04,1.92Zm-10-6.32l-3.06,5.92,2.86-.61,.2-5.3Z"/>
    <path d="M494.27,233.95c.04,.11,.07,.25,.07,.41,0,1.56-1.27,4.02-3.81,7.38-2.56,3.4-4.6,5.24-6.12,5.51-.77,.13-1.93-.49-3.47-1.87-1.45-1.36-2.24-2.38-2.38-3.06-.11-.52,.06-1,.51-1.43,.45-.43,.96-.63,1.53-.61,.72,.04,1.43,.32,2.12,.82,.69,.5,1.21,.77,1.55,.82s1.27-.95,2.79-2.98c1.52-2.03,2.28-3.43,2.28-4.2,0-.38-.27-.58-.82-.58-.29,0-.64,.14-1.04,.42s-.79,.55-1.17,.8c-.29,.11-.65,.36-1.07,.73-.42,.37-.81,.56-1.17,.56-.7,0-1.42-.36-2.14-1.09-.79-.77-1.17-1.59-1.12-2.45,.02-.57,.45-1,1.29-1.29,1.18-.41,1.84-.66,1.97-.75,.95-.73,1.99-1.88,3.13-3.45,1.13-1.58,1.7-2.73,1.7-3.45,0-.2-.05-.35-.14-.44-.14-.14-.67,.18-1.6,.95-.84,.68-1.62,1.43-2.35,2.24-.23,.18-.53,.6-.92,1.26-.29,.5-.67,.83-1.12,.99-.25,.09-.5,.14-.75,.14-.73,0-1.4-.27-2.02-.82-.62-.54-1.04-1.16-1.24-1.84-.16-.54,1.31-1.98,4.4-4.32,3.09-2.33,5.3-3.5,6.61-3.5,1.13,0,2.04,.4,2.72,1.21,.68,.8,1,1.76,.95,2.87-.07,1.84-.39,3.32-.95,4.45-.36,.75-1.2,1.85-2.52,3.3,1.2,.32,2.11,.68,2.72,1.09,.75,.52,1.27,1.25,1.56,2.18Z"/>
    <path d="M513.11,233.14c0,3.88-.56,7.16-1.67,9.86-1.41,3.31-3.43,4.91-6.09,4.79-2.7-.11-4.67-1.78-5.92-5-.95-2.49-1.43-5.71-1.43-9.66,0-3.08,.57-5.99,1.7-8.74,1.47-3.58,3.56-5.37,6.26-5.37,2.4,0,4.25,1.6,5.54,4.79,1.07,2.61,1.6,5.71,1.6,9.32Zm-4.9,0c-.02-2.92-.14-4.96-.34-6.12-.39-2.18-1.16-3.26-2.31-3.26-.66,0-1.27,1.09-1.84,3.26-.5,1.97-.77,4.01-.82,6.12-.07,2.29,.12,4.5,.58,6.63,.5,2.38,1.12,3.57,1.87,3.57,.66,0,1.3-1.19,1.94-3.57,.63-2.31,.94-4.52,.92-6.63Z"/>
    <path d="M528.41,246.4c-.29,.68-1.04,1.02-2.24,1.02-1.13,0-2.17-.27-3.09-.82-1.02-.61-1.46-1.34-1.33-2.18,.07-.34,.32-.73,.75-1.17,.43-.44,.63-.82,.61-1.14l-.61-15.1c-.02-.52-.53-1.04-1.53-1.56-1-.52-1.51-1.16-1.53-1.9,.68-1.43,1.46-2.56,2.35-3.4,.82-.79,1.58-1.22,2.28-1.29,.95-.09,1.81,.17,2.58,.78,.77,.61,1.13,1.37,1.09,2.28,0,.25-.12,.55-.37,.9-.25,.35-.37,.66-.37,.93l.54,17.95c.02,.5,.23,1.06,.61,1.68s.58,1.16,.58,1.62c0,.41-.1,.87-.31,1.39Z"/>
    <path d="M551.87,233.14c0,3.88-.56,7.16-1.67,9.86-1.41,3.31-3.43,4.91-6.09,4.79-2.7-.11-4.67-1.78-5.92-5-.95-2.49-1.43-5.71-1.43-9.66,0-3.08,.57-5.99,1.7-8.74,1.47-3.58,3.56-5.37,6.26-5.37,2.4,0,4.25,1.6,5.54,4.79,1.07,2.61,1.6,5.71,1.6,9.32Zm-4.9,0c-.02-2.92-.14-4.96-.34-6.12-.39-2.18-1.16-3.26-2.31-3.26-.66,0-1.27,1.09-1.84,3.26-.5,1.97-.77,4.01-.82,6.12-.07,2.29,.12,4.5,.58,6.63,.5,2.38,1.12,3.57,1.87,3.57,.66,0,1.3-1.19,1.94-3.57,.63-2.31,.94-4.52,.92-6.63Z"/>
  </g>
  <g>
    <path d="M39.48,165.82c.35,.83-.02,1.74-1.1,2.73-.3,.28-.65,.55-1.05,.82-2.36,1.55-4.12,2.04-5.3,1.46-.24-.11-.43-.25-.59-.42-.48-.53-.67-1.32-.58-2.37-3.54-3.67-10.78-11.15-21.73-22.43-.27-.35-.71-.65-1.31-.91-.6-.26-.99-.48-1.18-.69-.41-.45-.56-1.19-.44-2.22,.08-.72,.48-1.41,1.21-2.07,.83-.76,1.9-1.35,3.22-1.77,1.59-.48,2.72-.35,3.41,.41,.16,.18,.52,1.09,1.07,2.76l21.22,22.48c.27,.3,.74,.58,1.39,.84,.65,.26,1.1,.53,1.35,.8,.16,.18,.3,.38,.41,.6Z"/>
    <path d="M49.19,158.11c.34,1.42-.17,2.73-1.55,3.95-1.28,1.12-2.55,1.48-3.83,1.06-.38-.12-.7-.33-.97-.64-.22-.25-.51-.75-.84-1.5-.34-.74-.68-1.31-1.01-1.69l-21.92-24.6c-1.19-1.35-1.8-2.04-1.82-2.07-.22-.4-.1-.99,.35-1.77,.45-.78,1.03-1.48,1.74-2.11,1.05-.92,1.88-1.31,2.5-1.18,.62,.14,1.11,.41,1.47,.82,.25,.28,.55,.84,.92,1.67,.37,.83,.73,1.45,1.09,1.86l20.21,22.97c.34,.38,.89,.79,1.66,1.23,.77,.44,1.27,.79,1.52,1.07,.25,.28,.41,.59,.48,.93Z"/>
    <path d="M58.75,149.95c.32,1.43-.23,2.73-1.63,3.92-1.3,1.1-2.58,1.43-3.84,.99-.38-.13-.69-.35-.96-.66-.22-.26-.49-.76-.82-1.51-.32-.75-.65-1.32-.98-1.71l-21.46-25c-1.17-1.37-1.76-2.07-1.78-2.1-.21-.4-.08-.99,.38-1.76,.46-.77,1.06-1.46,1.78-2.08,1.06-.9,1.9-1.28,2.52-1.13,.61,.15,1.1,.43,1.45,.84,.24,.29,.54,.85,.89,1.68s.71,1.46,1.06,1.88l19.78,23.34c.33,.39,.87,.81,1.63,1.26,.76,.45,1.26,.82,1.5,1.1,.24,.29,.4,.6,.46,.94Z"/>
    <path d="M43.48,112.65c.14,.01,.29,.11,.44,.3,.19,.24,.45,.71,.76,1.42,.4,.86,.68,1.45,.84,1.75,.16,.31,.66,.87,1.5,1.67,.45,.55,.58,1.05,.39,1.49-.19,.44-.53,.86-1.03,1.27-.71,.58-1.55,1.03-2.53,1.34-1.2,.36-2.04,.24-2.54-.37-.15-.18-.28-.51-.39-.96-.11-.46-.24-.8-.38-1.04-.12-.25-.55-.78-1.29-1.58-.59-.61-.82-1.17-.7-1.67,.16-.66,.78-1.43,1.86-2.31,1.19-.97,2.21-1.41,3.07-1.32Zm8.38,9.22c.3,.37,.56,1.11,.79,2.22,.23,1.11,.54,1.92,.95,2.42l9.48,11.62c.43,.53,1.18,1.15,2.26,1.88,1.07,.73,1.76,1.27,2.06,1.64,.43,.53,.54,1.09,.34,1.7-.31,.96-.85,1.75-1.62,2.37-1,.82-1.99,1.06-2.97,.71-1.24-.39-3.57-2.68-6.99-6.87-.82-1-2.07-2.58-3.76-4.73-1.69-2.15-2.93-3.72-3.73-4.69-.3-.37-.73-.82-1.3-1.35-.56-.53-.95-.92-1.17-1.19-.71-.87-1.01-1.88-.89-3.03,.05-.48,.43-1.01,1.14-1.59,.71-.58,1.51-1.05,2.41-1.41,.89-.36,1.56-.47,1.99-.34,.43,.13,.77,.34,1.01,.63Z"/>
    <path d="M87.78,122.59c.4,.64,.39,1.44-.02,2.42-.41,.98-1.06,1.8-1.95,2.48-1.33,1.01-2.55,1.28-3.68,.81-6.13-8.49-9.59-12.52-10.38-12.1-.76,.41,.44,5.4,3.59,14.97,.62,.81,1.24,1.62,1.86,2.43,.71,.99,.98,1.88,.79,2.67-.19,.79-.57,1.4-1.14,1.83-.97,.74-2.42,1.01-4.33,.8-.53-.02-2.27-1.94-5.23-5.76,1.82,2.33-1.5-2.04-9.95-13.13-.19-.24-.47-.55-.84-.93-.37-.38-.63-.66-.78-.85-.39-.51-.6-1.06-.62-1.65-.05-.73,.28-1.37,.98-1.91,.73-.56,1.66-.92,2.8-1.08,1.14-.16,1.94-.1,2.41,.18,.31,.19,.57,.42,.78,.69,.21,.27,.39,.73,.54,1.38s.36,1.14,.6,1.46l4.27,5.6c-1.06-4.92-1.6-8.29-1.62-10.12,.02-3.18,1.05-5.44,3.1-6.79,1.22-.8,2.87-.35,4.95,1.36,1.57,1.28,3.55,3.45,5.93,6.51,1.86,2.43,3.71,4.87,5.57,7.3,.2,.15,.65,.34,1.34,.58,.4,.13,.73,.4,1.02,.83Z"/>
    <path d="M90.23,92.79c3.19,.6,6.35,3.15,9.47,7.65,2.42,3.49,3.83,6.92,4.23,10.29,.44,3.79-.64,6.59-3.24,8.39-2.57,1.78-5.42,1.92-8.54,.4-2.74-1.33-5.27-3.66-7.6-7.02-2.06-2.96-3.42-5.94-4.1-8.95-.74-3.21-.48-5.58,.77-7.12,.65-.79,1.42-1.48,2.28-2.08,2.15-1.49,4.39-2.02,6.73-1.57Zm-3.38,5.33c-.98,.56-1.17,1.97-.58,4.25,.56,2.06,1.47,3.99,2.73,5.81,1.82,2.63,3.22,4.41,4.2,5.34,1.75,1.68,3.3,2.2,4.67,1.54,.86-.43,.84-2.01-.06-4.74-.87-2.62-2.17-5.18-3.89-7.67-2.83-4.08-5.18-5.59-7.06-4.54Z"/>
    <path d="M96.97,74.13c.14,.03,.28,.15,.4,.35,.17,.26,.37,.76,.6,1.49,.3,.9,.51,1.51,.64,1.83,.13,.32,.56,.93,1.3,1.83,.39,.6,.46,1.11,.22,1.52-.24,.42-.63,.8-1.17,1.15-.77,.5-1.66,.85-2.66,1.05-1.23,.23-2.06,.01-2.48-.65-.13-.2-.22-.53-.28-1-.06-.47-.15-.82-.27-1.07-.09-.27-.46-.84-1.11-1.71-.52-.68-.69-1.26-.51-1.73,.24-.64,.94-1.33,2.11-2.09,1.29-.83,2.35-1.15,3.2-.97Zm7.3,10.1c.26,.4,.44,1.16,.54,2.29,.1,1.13,.33,1.96,.68,2.51l8.13,12.6c.37,.57,1.05,1.28,2.03,2.12,.99,.84,1.61,1.46,1.87,1.86,.37,.57,.42,1.15,.14,1.73-.42,.92-1.04,1.64-1.87,2.18-1.09,.7-2.1,.83-3.03,.38-1.19-.53-3.25-3.06-6.18-7.61-.7-1.09-1.77-2.79-3.21-5.12-1.44-2.33-2.5-4.02-3.18-5.08-.26-.4-.64-.89-1.14-1.48-.5-.59-.84-1.02-1.03-1.31-.61-.94-.79-1.98-.55-3.11,.1-.47,.54-.95,1.31-1.45s1.62-.87,2.55-1.13c.93-.25,1.6-.29,2.02-.12,.42,.18,.73,.42,.93,.74Z"/>
    <path d="M131.95,89.6c1.22,2.04,1.54,4.22,.95,6.54s-1.88,4.07-3.86,5.26c-1.25,.75-2.91,.93-4.97,.54-1.63-.33-3.28-.94-4.97-1.84-1.46-.79-2.25-1.37-2.35-1.74-.12-.92,.67-1.89,2.36-2.9,.7-.42,1.31-.65,1.85-.69,.93-.04,1.61,.2,2.05,.73,.49,.62,.89,.95,1.2,1.01,1.17,.57,2.01,.7,2.5,.4,.38-.23,.58-.7,.61-1.41,.03-.71-.17-1.42-.59-2.12-.26-.44-.6-.83-1.01-1.18-.41-.35-1.6-.55-3.57-.59-2.37-.05-4.16-.26-5.38-.64-2.09-.65-3.7-1.9-4.82-3.77-1.31-2.19-1.82-4.49-1.53-6.91,.29-2.42,1.43-4.22,3.42-5.41,2.04-1.22,4.06-1.39,6.07-.49,1.63,.73,2.75,1.78,3.38,3.15,.53,.16,1.04,.64,1.53,1.46,.52,.87,.65,1.81,.38,2.81-.27,1-.75,1.7-1.42,2.1-.99,.6-2.25,.46-3.76-.42-.41-.23-.8-.63-1.15-1.22-.16-.26-.36-.65-.6-1.15-.25-.51-.43-.86-.55-1.07-.45-.76-.96-.97-1.51-.64-.85,.51-.77,1.59,.23,3.25,1.02,1.69,2.38,2.71,4.1,3.07,.68,.15,1.98,.16,3.89,.04,1.64-.11,2.92,.01,3.85,.37,1.4,.55,2.62,1.7,3.67,3.45Z"/>
    <path d="M172.2,72.46c.12,.17,.22,.33,.3,.48,.46,.91,.31,1.95-.44,3.1s-1.7,2.02-2.86,2.6c-.7,.35-1.33,.5-1.89,.44-.4-.03-.84-.25-1.33-.67-.49-.42-.92-.65-1.29-.69l-13.46-1.69,2.51,3.99c.14,.2,.59,.52,1.37,.97,.78,.45,1.28,.9,1.51,1.36,.34,.67,.22,1.51-.34,2.51-.33,.62-.9,1.13-1.69,1.53-1.12,.56-2.33,.79-3.6,.67-1.37-.07-2.4-.53-3.08-1.36-.12-.17-.21-.31-.27-.43-.21-.43-.19-.9,.06-1.43,.25-.52,.31-.92,.17-1.2l-14.49-25.25c-.23-.38-.66-.82-1.29-1.32-.63-.5-1.02-.9-1.18-1.21-.4-.79-.2-1.69,.59-2.69,.64-.85,1.4-1.5,2.28-1.94,.58-.29,1.12-.46,1.63-.5,.51-.05,.93,.07,1.25,.34,.33,.27,.6,.36,.81,.25,.04,.02,.8-.78,2.28-2.4,1.73-1.86,3.4-3.19,5.01-4,2.34-1.17,4.64-1.3,6.89-.37,.62,.26,1.14,.8,1.55,1.62,1.11,2.22,1.41,5.99,.88,11.31-.53,5.02-1.51,9.32-2.95,12.89l15.88,2.31s.99,0,2.83-.05c1.05-.03,1.84,.26,2.37,.86Zm-26.42-22.18c-.67,.34-1.41,1.51-2.23,3.52-.18,.4-.78,2.01-1.8,4.84l4,8.21c.85-3.01,1.39-6.17,1.64-9.47,.25-3.3,.1-5.5-.45-6.59-.29-.58-.68-.74-1.16-.5Z"/>
    <path d="M167.48,36.63c.13,.05,.25,.19,.35,.4,.12,.28,.25,.8,.36,1.57,.15,.94,.27,1.57,.35,1.91,.08,.34,.41,1.01,1,2.01,.29,.65,.29,1.17-.01,1.54-.3,.38-.74,.69-1.33,.96-.84,.37-1.77,.58-2.79,.63-1.25,.03-2.03-.31-2.35-1.02-.1-.22-.14-.56-.12-1.03,.01-.47-.02-.84-.1-1.1-.05-.28-.32-.9-.83-1.86-.41-.75-.49-1.35-.24-1.79,.33-.59,1.13-1.17,2.41-1.74,1.4-.62,2.5-.78,3.31-.46Zm5.66,11.1c.19,.44,.25,1.22,.18,2.35-.07,1.13,.02,1.99,.28,2.58l6.09,13.7c.28,.62,.84,1.42,1.68,2.41,.85,.98,1.37,1.69,1.56,2.13,.28,.62,.23,1.2-.12,1.73-.56,.84-1.29,1.46-2.19,1.86-1.18,.52-2.2,.49-3.06-.09-1.09-.7-2.74-3.53-4.93-8.47-.52-1.18-1.32-3.03-2.38-5.55s-1.85-4.36-2.36-5.51c-.19-.44-.49-.98-.9-1.64-.4-.66-.67-1.14-.81-1.45-.46-1.03-.48-2.08-.06-3.15,.17-.45,.68-.86,1.52-1.23s1.74-.61,2.69-.72c.96-.11,1.63-.04,2.01,.19,.38,.24,.65,.53,.8,.87Z"/>
    <path d="M199.44,35.22c.38,.32,.66,.71,.84,1.15,.25,.63,.29,1.53,.13,2.69-.26,1.56-.39,2.55-.38,2.94,.18,4.53,.37,10.27,.58,17.2,.41,2.25,.47,3.94,.19,5.08-.32,1.51-1.27,2.53-2.86,3.04-1.52,.49-2.64,.58-3.34,.27-.53-.23-.95-.74-1.26-1.53-.05-.13-.12-.3-.21-.52-.09-.22-.15-.38-.19-.47-.22-.57-.46-1.03-.7-1.37l-11.68-15.46c-.24-.34-.9-.8-1.96-1.36-.86-.43-1.34-.95-1.44-1.57-.23-1.52,.62-2.65,2.55-3.41,.41-.16,.8-.28,1.18-.35,1.33-.23,3.4,1.46,6.21,5.06,2.49,3.44,4.98,6.86,7.49,10.26l-1.04-17.13c-.05-.86-.05-1.46,0-1.81,.09-.62,.33-1.17,.74-1.66s.99-.88,1.75-1.18c1.45-.57,2.59-.53,3.4,.14Z"/>
    <path d="M226.58,51.38c.01,1.32-.58,2.86-1.8,4.63-.15,.42-.96,1.1-2.42,2.05-1.67,1.1-3.18,1.75-4.53,1.94-2.53,.38-4.8-.61-6.82-2.98-1.85-2.2-3.17-5.11-3.97-8.73-.87-3.92-.9-7.51-.09-10.79,.91-3.61,2.68-5.92,5.31-6.92,.52-.18,1.02-.33,1.52-.44,3.95-.87,6.66,1.07,8.13,5.83,.69,2.18,.35,4.8-1.03,7.85-1.49,3.36-3.76,5.99-6.82,7.88,.66,1.25,1.13,2.05,1.42,2.4,.65,.73,1.37,1,2.17,.83,.76-.17,1.51-.65,2.24-1.44,.62-.66,1.01-1.25,1.17-1.77,.12-.1,.17-.5,.15-1.21-.02-.71,.22-1.28,.72-1.7,.18-.14,.4-.25,.66-.3,.8-.18,1.65,.04,2.57,.66,.92,.62,1.39,1.36,1.41,2.22Zm-11.7-15.8c-1.33,.29-2.2,1.48-2.61,3.55-.54,2.77-.43,5.35,.31,7.77,1.45-.84,2.64-2.32,3.56-4.44,.92-2.12,1.23-3.89,.91-5.32-.29-1.29-1.01-1.81-2.17-1.56Z"/>
    <path d="M249.06,30.64c-.13,.71-.78,1.21-1.93,1.49-1.36,.35-2.22,.74-2.6,1.18l-8.27,9.63,.03,7.75c0,.75,.22,1.5,.65,2.27,.43,.76,.64,1.35,.65,1.76,0,.41-.12,.87-.35,1.38-.57,1.29-1.74,1.95-3.51,1.95-1.22,0-2.19-.38-2.91-1.16-.48-.51-.72-1.15-.72-1.94,0-.27,.03-.71,.1-1.33,.06-.61,.1-1.1,.1-1.48l-.08-19.07c0-.31-.14-.68-.41-1.12-.27-.44-.41-.8-.41-1.07,0-.2,.07-.44,.2-.71,.44-.82,1.81-1.23,4.13-1.24,1.8,0,2.82,.41,3.07,1.26,.1,.34,.16,.63,.16,.87,0,.37-.13,.66-.4,.87-.27,.21-.41,.41-.41,.61l.11,1.84,4.37-4.66c.51-.58,1.04-1.16,1.6-1.74,.56-.58,1.21-.91,1.96-.98,1.15-.11,2.27,.14,3.34,.75,1.07,.61,1.61,1.4,1.62,2.39,0,.17-.02,.34-.05,.51Z"/>
  </g>
</svg>